<?xml version="1.0" encoding="UTF-8"?>
<svg id="_レイヤー_2" data-name="レイヤー 2" xmlns="http://www.w3.org/2000/svg" viewBox="0 0 128.99 62.4">
  <defs>
    <style>
      .cls-1 {
        fill: #fff;
        stroke-width: 0px;
      }
    </style>
  </defs>
  <g id="layout">
    <g>
      <g>
        <path class="cls-1" d="m1.64,56.63c.13.52.19.99.19,1.41,0,1.62-.85,2.63-1.5,2.63-.24,0-.33-.2-.33-.32,0-.14.09-.31.23-.44.67-.51,1.28-1.78,1.21-3.27h.2Zm1.19-4.07c2.95.13,3.87,1.14,3.87,1.68,0,.21-.13.34-.33.34-.05,0-.12-.01-.19-.03-.47-.62-1.67-1.42-3.38-1.81l.02-.18Zm.2,2.8l1.14.11c-.02.14-.09.21-.43.26v5.28c0,.37.04.41.49.41h2.39c.2,0,.32-.01.41-.18.1-.16.25-.87.42-1.64h.11v1.73c.32.11.39.15.39.26,0,.32-.32.46-1.32.46h-2.39c-.98,0-1.21-.18-1.21-1.06v-5.65Zm4.79.77c1.83,1.13,2.38,2.55,2.38,3.48,0,.58-.22.97-.48.97-.1,0-.21-.05-.32-.19-.01-1.1-.41-2.95-1.68-4.14l.11-.12Z"/>
        <path class="cls-1" d="m19.24,55.59c.09-.15.38-.24.57-.24.62,0,1.19.58,1.19.88,0,.28-.22.38-.71.51-.53.12-1.82.64-2.8,1.11.01.12.01.25.01.37,0,1.32-.18,1.81-.53,1.81-.2,0-.33-.17-.33-.48,0-.07,0-.13.01-.2.08-.49.13-.85.12-1.21-.99.52-1.91,1.18-1.91,2.11,0,.7.7.97,1.97.97,1.1,0,2-.07,2.19-.26.7.07,1.11.21,1.11.43,0,.2-.1.3-.47.37-.51.11-1.69.13-2.3.13-2.43,0-3.04-.64-3.04-1.54,0-1.08,1.28-2.05,2.43-2.66,0-.08-.01-.15-.01-.24-.05-.84-.43-1.09-.85-1.09-1.01,0-2.23,1.3-3.17,2.66-.26.38-.41.56-.58.56-.15,0-.34-.19-.34-.46s.22-.45.56-.75c.92-.82,1.9-2.39,2.27-3.48-.32.02-.68.03-.9.03-.88,0-1.32-.39-1.53-1l.13-.1c.3.44.7.64,1.44.64.25,0,.74-.02,1.04-.08.16-.47.23-.82.23-1.09s-.3-.39-.57-.39c-.09,0-.18.01-.24.03h-.02c.06-.24.29-.46.66-.46.61,0,1.12.3,1.12.57,0,.23-.15.26-.25.51-.09.24-.18.49-.28.72.61-.08,1.42-.25,1.85-.42.26-.09.49-.21.57-.44.66,0,1.11.08,1.11.41,0,.19-.31.28-.6.36-.73.23-2.22.53-3.15.63-.32.82-.75,1.57-1.11,2.08h.05c.76-.71,1.4-.92,1.84-.92.62,0,1.2.31,1.38,1.36,1.15-.58,2.5-1.12,2.5-1.36,0-.19-.2-.3-.45-.3-.06,0-.1,0-.15,0l-.04-.11Z"/>
        <path class="cls-1" d="m25.88,60.92l2.39-.35.03.18c-1.16.34-2.73.78-4.88,1.31-.06.13-.17.22-.26.24l-.42-.98c.51-.04,1.4-.15,2.46-.31v-1.23h-2.09l-.08-.26h2.17v-1.05h-1.31v.25c0,.05-.22.22-.56.22h-.1v-3.64l.79.34h1.18v-1.01h-2.42l-.08-.26h2.5v-1c-.75.09-1.53.16-2.26.2l-.04-.19c1.56-.25,3.53-.77,4.55-1.17l.8.78s-.11.06-.19.06c-.11,0-.23-.02-.37-.09-.51.11-1.13.22-1.82.31v1.1h1.33l.46-.59.9.63c-.09.16-.21.23-.52.23h-2.18v1.01h1.26l.32-.41.86.65c-.08.08-.19.13-.41.18v2.6s-.27.21-.57.21h-.11v-.4h-1.35v1.05h1.01l.43-.56.86.59c-.09.16-.21.23-.51.23h-1.79v1.14Zm-.68-5.03h-1.31v1.01h1.31v-1.01Zm-1.31,2.3h1.31v-1.02h-1.31v1.02Zm3.34-2.3h-1.35v1.01h1.35v-1.01Zm-1.35,2.3h1.35v-1.02h-1.35v1.02Zm6.16-3.66l.89.72c-.08.09-.22.15-.46.19-.04,4.04-.15,6.08-.62,6.55-.28.29-.56.41-1.12.42,0-.44-.14-.57-1.06-.68v-.2c.39.01.99.04,1.27.04.2,0,.26-.02.36-.13.33-.35.43-2.39.48-6.16h-1.48c-.09,2.93-.53,5.39-2.87,7.13l-.17-.19c1.89-1.75,2.27-4.1,2.34-6.94h-1.26l-.08-.26h1.33c.01-.44.01-1.48.01-2.79l1.19.09c-.02.15-.1.23-.47.28-.01.84-.01,1.64-.02,2.42h1.35l.37-.47Z"/>
        <path class="cls-1" d="m36.86,53.1c.11-.24.37-.41.61-.41.62,0,1.21.37,1.21.71,0,.17-.21.2-.33.66-.11.45-.24.92-.39,1.38.28-.03.75-.12,1.19-.12,1.58,0,1.82.92,1.82,2.46s-.55,4.03-1.88,4.03c-.23,0-.33-.2-.41-.48-.07-.23-.76-.78-1.35-1.26l.14-.19c.78.48,1.44.88,1.73.88.15,0,.26-.02.47-.32.28-.39.65-1.47.65-2.88,0-1.2-.11-1.87-1.21-1.87-.3,0-.98.11-1.28.19-.54,1.77-1.38,3.9-2.04,5.14-.22.43-.41.63-.58.63-.22,0-.36-.19-.36-.62,0-.23.29-.54.46-.77.52-.62,1.43-2.75,1.87-4.23-.29.08-.78.22-1.09.35-.12.06-.29.25-.43.25-.51,0-.84-.59-.84-.99,0-.23.16-.43.32-.47l.04.02c-.04.24.15.61.54.61.42,0,1-.12,1.56-.24.12-.43.38-1.59.38-1.97,0-.34-.14-.49-.57-.49-.07,0-.14,0-.22,0l-.03-.02Zm4.75,1.45c1.95.58,2.64,2.16,2.64,3.31,0,.54-.2.86-.46.86-.2-.01-.39-.11-.39-.49,0-1.34-.4-2.75-1.94-3.45l.14-.22Z"/>
        <path class="cls-1" d="m50.27,52.86c.11-.25.32-.44.69-.44.54,0,1.14.31,1.14.63,0,.19-.1.29-.14.42-.03.13-.04.37-.04.94.72-.06,1.41-.09,1.75-.1.46-.02.69-.12.86-.32.63.16,1.29.43,1.29.76,0,.11-.18.19-.32.19-.34,0-.76-.13-1.34-.17-.19-.01-.43-.01-.69-.01-.52,0-1.12.01-1.54.04,0,.3-.02,1.74,0,2.07.21.33.34.79.34,1.64,0,1.73-.95,3.06-3.24,3.71l-.13-.22c1.68-.65,2.54-1.84,2.62-2.95-.24.37-.69.59-1.31.59-.98,0-1.68-.75-1.68-1.71,0-1.06.8-1.85,1.83-1.85.37,0,.74.1.98.3,0-.57-.01-1.15-.03-1.54-1.13.1-2.59.29-3.49.57-.26.09-.31.2-.56.2-.41-.01-1.01-.56-1.01-.99,0-.19.08-.33.19-.43h.07c.02.16.13.65.96.65.55,0,3.23-.33,3.84-.39-.07-1.34-.08-1.57-.67-1.57-.1,0-.2.01-.3.02l-.03-.04Zm1.2,4.73c0-.46-.37-1.1-1.14-1.1-.63,0-1.18.49-1.18,1.41,0,.77.61,1.21,1.11,1.21.96,0,1.21-.6,1.21-1.52"/>
        <path class="cls-1" d="m67.42,60.3c0,.19-.12.25-.33.25-.25,0-.62-.09-1.03-.12-.44-.03-1.08-.1-1.54-.12-.19-.01-.4-.01-.62-.01-1.21,0-2.82.12-4.27.32-.57.09-.57.23-.85.23-.4,0-1.01-.65-1.01-1.07,0-.23.07-.43.27-.46.19.62.73.73,1.17.73.32,0,2.43-.13,2.88-.15.04-.84.07-1.91.07-2.74,0-1.51-.05-1.71-.37-1.94-.4.03-.78.06-1.06.11-.48.07-.52.16-.8.16-.57,0-1.08-.52-1.08-.84,0-.15.09-.4.21-.4.22.38.76.51,1.31.51.91,0,2.39-.11,3.39-.25.91-.13.75-.32.97-.32.42,0,1.29.29,1.29.56,0,.24-.19.32-.52.32-.18,0-1.05-.04-1.24-.04-.32,0-.97.04-1.66.1.24.15.47.39.47.53,0,.22-.13.28-.13.89-.01.86-.08,2.3-.17,3.31.69-.03,1.97-.09,2.56-.13.31-.02.55-.09.73-.25.84.22,1.36.5,1.36.82"/>
        <path class="cls-1" d="m69.36,59.93c2.64-1.07,5.18-2.98,6.17-4.5.02-.03.03-.07.03-.08,0-.02-.01-.02-.06-.02s-2.94.25-3.65.54c-.13.04-.19.15-.36.15-.42,0-.93-.65-.93-.98,0-.23.16-.41.24-.41.1.59.65.59.99.59.74,0,2.75-.19,3.62-.3.18-.02.24-.07.32-.13.11-.09.21-.19.29-.19.18,0,.87.52.87.71,0,.12-.12.15-.3.2-.13.04-.22.07-.3.19-.52.65-1.2,1.31-2,1.95.11.1.22.25.22.36,0,.12-.05.26-.08.41-.01.12-.02.48-.02.88,0,.48.01,1,.02,1.17.01.3.04.61.04.91,0,.33-.11.63-.45.63-.27,0-.35-.57-.48-.99.18-.19.25-.34.25-2.01,0-.42-.01-.52-.04-.97-1.2.85-2.66,1.57-4.27,2.11l-.13-.22Zm2.64-7.33c1.87.12,3.22.92,3.22,1.47,0,.21-.17.39-.41.39-.19,0-.34-.13-.62-.42-.45-.49-1.31-.98-2.27-1.2l.07-.24Zm3.27,5.07c.99.26,1.88.67,2.42,1.07.46.34.79.7.79.98,0,.24-.15.42-.4.42-.17,0-.44-.32-.71-.63-.54-.6-1.26-1.17-2.23-1.6l.13-.24Z"/>
        <path class="cls-1" d="m82.01,54.84c.08-.16.33-.34.57-.34.45,0,1.24.35,1.24.67,0,.13-.1.18-.15.27-.05.08-.07.15-.09.3-.29,2.34-1.03,4.47-2.94,5.96l-.22-.2c1.53-1.55,2.27-3.93,2.38-6.04,0-.46-.35-.63-.78-.58v-.04Zm8.34,1.27c-.74,2.35-2.11,3.72-3.78,4.64-.21.12-.33.23-.42.34-.13.16-.2.32-.32.32-.23,0-.72-.52-.72-.82,0-.14.1-.25.17-.37.04-.1.07-.29.08-.6.02-.6.03-1.79.03-2.94,0-.99-.01-1.95-.02-2.45-.01-.45-.03-.79-.27-.89-.15-.08-.36-.11-.57-.09h-.01c.04-.21.25-.41.59-.41.45,0,1.24.31,1.24.69,0,.14-.08.22-.15.34-.09.11-.13.27-.14.53-.07,1.07-.08,2.87-.08,4.49v1.16c.01.05.02.08.07.08.19,0,2.88-1.26,4.05-4.11l.25.11Z"/>
        <path class="cls-1" d="m94.92,53.07c.04-.2.31-.44.62-.44.45,0,1.21.15,1.21.43,0,.14-.04.2-.09.31-.03.08-.05.2-.05.35,0,.18.1,1.02.11,1.21,1.51-.29,1.91-.42,2.1-.65.58.06,1.21.23,1.21.54,0,.24-.46.24-.86.24-.53,0-1.43.11-2.42.3.08.78.18,1.72.26,2.56.76-.11,1.48-.2,2.07-.28.59-.08.91-.18,1.09-.42.69.11,1.28.24,1.28.53s-.47.3-1.18.3c-.83,0-2.06.13-3.2.3.08.7.19,1.56.24,2.04.01.15.17.91.17,1.09,0,.3-.08.6-.33.6-.33,0-.52-.46-.59-.86.08-.19.07-.41.08-.75,0-.37-.09-1.49-.14-2.02-.91.13-2.44.36-3.15.69-.18.09-.28.16-.44.16-.39,0-.99-.52-.99-.88,0-.2.09-.35.18-.35.18.31.44.44.92.44.21,0,.46-.02.77-.08l2.67-.42c-.04-.67-.19-1.96-.27-2.55-.67.12-1.56.29-1.98.43-.18.09-.31.19-.51.19-.51,0-1.07-.45-1.07-.87,0-.12.04-.23.12-.32h.06c.16.37.41.47.85.47.56,0,1.65-.19,2.47-.33-.19-1.58-.25-1.96-.93-1.96-.08,0-.16.01-.24.02l-.02-.02Zm4.13-.66c.88.32,1.55.93,1.55,1.42,0,.27-.18.38-.33.38s-.23-.05-.33-.31c-.13-.38-.45-.92-1.06-1.31l.16-.19Zm1.44-.46c.88.32,1.54.95,1.54,1.42,0,.29-.16.4-.31.4-.15,0-.24-.07-.34-.33-.13-.36-.45-.91-1.06-1.3l.17-.19Z"/>
        <path class="cls-1" d="m110.42,56.88c.73,0,1.15-.09,1.33-.09.53,0,1.21.19,1.21.46,0,.19-.2.29-.63.29-.2,0-.43,0-.65-.01-.47-.02-1.33-.02-2-.02-1.3,0-4.22,0-4.76.2-.14.05-.29.16-.47.16-.4,0-1.13-.68-1.13-1.12,0-.26.07-.42.21-.55h.08c.12.57.55.68,1.67.68h5.15Z"/>
        <path class="cls-1" d="m122.31,55.59c.09-.15.38-.24.57-.24.62,0,1.19.58,1.19.88,0,.28-.22.38-.71.51-.53.12-1.82.64-2.8,1.11.01.12.01.25.01.37,0,1.32-.18,1.81-.53,1.81-.2,0-.33-.17-.33-.48,0-.07,0-.13.01-.2.08-.49.13-.85.12-1.21-.99.52-1.91,1.18-1.91,2.11,0,.7.7.97,1.97.97,1.1,0,2-.07,2.19-.26.7.07,1.11.21,1.11.43,0,.2-.1.3-.47.37-.51.11-1.69.13-2.3.13-2.43,0-3.04-.64-3.04-1.54,0-1.08,1.28-2.05,2.43-2.66,0-.08-.01-.15-.01-.24-.05-.84-.43-1.09-.85-1.09-1.01,0-2.23,1.3-3.17,2.66-.26.38-.41.56-.58.56-.15,0-.34-.19-.34-.46s.22-.45.56-.75c.92-.82,1.9-2.39,2.27-3.48-.32.02-.68.03-.9.03-.88,0-1.32-.39-1.53-1l.13-.1c.3.44.7.64,1.44.64.25,0,.74-.02,1.04-.08.16-.47.23-.82.23-1.09s-.3-.39-.57-.39c-.09,0-.18.01-.24.03h-.02c.06-.24.29-.46.66-.46.61,0,1.12.3,1.12.57,0,.23-.15.26-.25.51-.09.24-.18.49-.28.72.61-.08,1.42-.25,1.85-.42.26-.09.49-.21.57-.44.66,0,1.11.08,1.11.41,0,.19-.31.28-.6.36-.73.23-2.22.53-3.15.63-.32.82-.75,1.57-1.11,2.08h.05c.76-.71,1.4-.92,1.84-.92.62,0,1.2.31,1.38,1.36,1.15-.58,2.5-1.12,2.5-1.36,0-.19-.2-.3-.45-.3-.06,0-.1,0-.15,0l-.04-.11Z"/>
        <path class="cls-1" d="m127.39,59.18c.88,0,1.6.72,1.6,1.6s-.72,1.6-1.6,1.6-1.59-.72-1.59-1.6.73-1.6,1.59-1.6m1.24,1.6c0-.69-.56-1.25-1.24-1.25s-1.25.56-1.25,1.25.56,1.24,1.25,1.24,1.24-.58,1.24-1.24"/>
      </g>
      <g>
        <path class="cls-1" d="m74.32,14.56c-.99,3.24-9.27,4.39-12.71,3.64-1.95-.42-3.02-1-2.89-1.59.14-.62,1.59-1.32,7.46-1.67l8.14-.38Zm-24.82.12c.14.34.21.57.45.62.33.07.57-.21.98-.68,1.3-1.44,5.57-5.11,6.98-6.34,8.17-7.01,12.9-7.89,14.93-7.45,1.21.26,2.09,1.29,1.8,2.62-1.14,3.79-8.54,3.04-8.9,4.69-.22,1,2.23,1.38,4.58,2.05,2.25.59,4.42,1.55,4.13,3.71l-11.51.38c-4.44.14-5.59.85-5.78,1.73-.24,1.09,1.36,2.24,4.25,2.87,2.68.59,8.23.32,12.71-2.22,1.38-.66,2.06-1.5,2.53-2.1l1.15-.03c.28-.03.49-.11.52-.29.05-.21-.02-.34-.22-.39h-.25s-.87.04-.87.04c.08-.23.17-.49.25-.87.51-2.33-1.79-3.94-5.89-4.84-1.38-.3-2.18-.48-2.14-.66.08-.35,6.31-.75,7.12-4.18.28-1.27-.35-2.76-2.42-3.21-4.07-.89-10.24,2.33-13.16,3.88l-.12-.03c-19.39-2.68-1.51.84-3.8,2.29-2.66,1.86-7.75,6.17-7.84,6.59-.04.21,0,.4.09.61l.42,1.2Z"/>
        <path class="cls-1" d="m7.78,24.55c0-.09.05-.13.22-.16.3-.06.68-.07.88-.07,1.81,0,2.5,1.26,2.5,2.44,0,.58-.28,1.09-.67,1.44-.39.34-.65.37-1.68.37-.68,0-1.01-.04-1.13-.06-.09-.02-.13-.06-.13-.16v-3.81Zm-1.48,5.99c0,1.37,0,2.48-.09,3.08-.08.41-.17.72-.53.78-.17.03-.39.06-.55.06-.11,0-.15.04-.15.09,0,.08.09.11.3.11.55,0,1.72-.05,1.81-.05.15,0,2.03.09,2.46.09,3.16,0,4.71-1.58,4.71-3.09,0-1.66-1.83-2.67-3.2-3,.87-.7,1.74-1.39,1.74-2.56,0-.71-.67-2.13-3.7-2.13-.85,0-1.57.04-2.01.04-.09,0-1.26-.04-2.09-.04-.2,0-.29.03-.29.11,0,.05.08.08.15.08.17,0,.48.02.63.05.61.1.76.33.8.81.04.45.04.85.04,3.07v2.5Zm1.48-1.49c0-.07.04-.1.11-.1.28,0,1.2,0,1.44.03.44.04.9.09,1.54.41,1.42.75,1.79,1.98,1.79,2.84,0,1.61-1.61,2.02-2.61,2.02-.33,0-1.13-.03-1.62-.21-.57-.21-.57-.41-.63-1.11-.01-.21-.01-1.97-.01-3.07v-.81Z"/>
        <path class="cls-1" d="m18.27,24.63c0-.08.05-.14.15-.17.18-.04.68-.08,1.24-.08,1.97,0,3.2,1.06,3.2,2.84,0,1.08-.48,1.85-1.13,2.19-.43.23-.94.27-1.38.27-.81,0-1.66-.1-1.94-.23-.09-.04-.13-.1-.13-.17v-4.64Zm-1.48,5.91c0,1.36,0,2.48-.09,3.08-.08.41-.16.72-.54.78-.17.03-.39.06-.56.06-.11,0-.15.04-.15.09,0,.08.1.11.3.11.55,0,1.72-.04,1.74-.04.09,0,1.25.04,2.27.04.2,0,.29-.04.29-.11,0-.05-.03-.09-.15-.09-.16,0-.57-.03-.83-.06-.55-.06-.66-.37-.72-.78-.09-.6-.09-1.72-.09-3.08v-.34c0-.07.04-.11.13-.11l2.28.03c.11,0,.17.03.24.09.37.37,1.24,1.32,2.01,2.1,1.05,1.06,1.7,1.76,2.5,2.09.48.19.94.27,1.97.27h1.31c.33,0,.44-.03.44-.11,0-.05-.08-.09-.17-.09-.11,0-.37,0-.72-.04-.47-.06-1.26-.21-2.26-1.02-1.07-.88-2.33-2.14-3.84-3.64,1.66-1.18,2.23-2.23,2.23-3.28,0-.98-.81-1.68-1.28-1.93-.98-.54-2.22-.62-3.37-.62-.58,0-1.98.04-2.18.04-.09,0-1.26-.04-2.09-.04-.2,0-.29.03-.29.11,0,.06.07.08.15.08.16,0,.48.01.63.04.61.1.76.32.79.81.04.46.04.85.04,3.07v2.5Z"/>
        <path class="cls-1" d="m32.24,29.96c-.05,0-.09-.03-.05-.1l1.62-3.83c.1-.21.19-.21.28,0l1.76,3.83c.01.06.01.1-.08.1h-3.52Zm-2.58,3.14c-.34.71-.71,1.25-1.55,1.34-.15.01-.41.03-.54.03-.09,0-.16.03-.16.08,0,.08.11.11.34.11.87,0,1.89,0,2.1,0s.99,0,1.43,0c.17,0,.28-.03.28-.11,0-.06-.06-.08-.18-.08h-.18c-.31,0-.7-.13-.7-.41,0-.26.09-.6.26-.95l1.11-2.51c.04-.07.09-.12.18-.12h3.97c.09,0,.13.03.16.09l1.72,3.49c.11.23,0,.35-.11.38-.08.01-.13.04-.13.1,0,.08.2.08.55.1,1.28.03,2.62.03,2.9.03.21,0,.37-.03.37-.11,0-.07-.07-.08-.18-.08-.19,0-.46-.02-.74-.09-.39-.09-.92-.31-1.59-1.58-1.12-2.16-4.03-8.02-4.3-8.56-.22-.44-.3-.51-.41-.51s-.18.08-.4.56l-4.19,8.82Z"/>
        <path class="cls-1" d="m99.43,24.63c0-.08.05-.14.15-.17.18-.04.68-.08,1.24-.08,1.97,0,3.2,1.06,3.2,2.84,0,1.08-.48,1.85-1.13,2.19-.43.23-.94.27-1.38.27-.81,0-1.66-.1-1.94-.23-.09-.04-.13-.1-.13-.17v-4.64Zm-1.48,5.91c0,1.36,0,2.48-.09,3.08-.08.41-.16.72-.54.78-.17.03-.39.06-.56.06-.11,0-.15.04-.15.09,0,.08.1.11.3.11.55,0,1.72-.04,1.74-.04.09,0,1.25.04,2.27.04.2,0,.29-.04.29-.11,0-.05-.03-.09-.15-.09-.16,0-.57-.03-.83-.06-.55-.06-.66-.37-.72-.78-.09-.6-.09-1.72-.09-3.08v-.34c0-.07.04-.11.13-.11l2.27.03c.11,0,.17.03.24.09.37.37,1.24,1.32,2.01,2.1,1.05,1.06,1.7,1.76,2.5,2.09.48.19.94.27,1.97.27h1.31c.33,0,.44-.03.44-.11,0-.05-.08-.09-.17-.09-.11,0-.37,0-.72-.04-.47-.06-1.26-.21-2.26-1.02-1.07-.88-2.33-2.14-3.84-3.64,1.66-1.18,2.23-2.23,2.23-3.28,0-.98-.81-1.68-1.28-1.93-.98-.54-2.22-.62-3.37-.62-.58,0-1.98.04-2.18.04-.09,0-1.26-.04-2.09-.04-.2,0-.29.03-.29.11,0,.06.07.08.15.08.16,0,.48.01.63.04.61.1.76.32.8.81.04.46.04.85.04,3.07v2.5Z"/>
        <path class="cls-1" d="m113.39,29.96c-.05,0-.09-.03-.05-.1l1.62-3.83c.1-.21.19-.21.28,0l1.76,3.83c.01.06.01.1-.08.1h-3.52Zm-2.58,3.14c-.34.71-.71,1.25-1.55,1.34-.15.01-.41.03-.54.03-.09,0-.16.03-.16.08,0,.08.11.11.34.11.87,0,1.89,0,2.1,0s.99,0,1.43,0c.17,0,.28-.03.28-.11,0-.06-.06-.08-.18-.08h-.18c-.31,0-.7-.13-.7-.41,0-.26.09-.6.26-.95l1.11-2.51c.04-.07.09-.12.18-.12h3.97c.09,0,.13.03.16.09l1.72,3.49c.11.23,0,.35-.11.38-.08.01-.13.04-.13.1,0,.08.2.08.55.1,1.28.03,2.62.03,2.9.03.21,0,.37-.03.37-.11,0-.07-.07-.08-.18-.08-.19,0-.46-.02-.74-.09-.39-.09-.92-.31-1.59-1.58-1.12-2.16-4.03-8.02-4.3-8.56-.22-.44-.3-.51-.41-.51s-.18.08-.4.56l-4.19,8.82Z"/>
        <path class="cls-1" d="m44.34,32.73c.04,1.16.22,1.54.72,1.65.35.07.76.09.93.09.09,0,.15.03.15.09,0,.08-.11.12-.33.12-1.05,0-1.79-.05-1.96-.05s-.94.05-1.77.05c-.19,0-.3-.02-.3-.12,0-.06.05-.09.15-.09.15,0,.48-.01.76-.09.46-.1.55-.51.55-1.8l.02-8.14c0-.55.05-.71.2-.71s.46.31.65.45c.28.24,3.03,2.53,5.87,4.87,1.83,1.5,3.84,3.24,4.43,3.71l-.2-7.22c-.02-.92-.15-1.24-.72-1.35-.34-.06-.76-.07-.91-.07-.13,0-.14-.04-.14-.1,0-.09.14-.1.36-.1.83,0,1.72.04,1.92.04s.81-.04,1.57-.04c.2,0,.33.01.33.1,0,.06-.08.1-.21.1-.09,0-.22,0-.44.04-.61.1-.68.41-.68,1.26l-.04,8.32c0,.94-.03,1.01-.17,1.01-.15,0-.37-.16-1.35-.91-.2-.14-2.86-2.23-4.82-3.85-2.14-1.78-4.23-3.57-4.82-4.07l.24,6.8Z"/>
        <path class="cls-1" d="m59.31,33.32c-1.79-1.23-2.24-2.85-2.24-4.2,0-.95.43-2.61,2.07-3.87,1.11-.86,2.79-1.52,5.63-1.52.74,0,1.77.04,2.68.17.7.1,1.29.18,1.88.21.2.01.24.07.24.16,0,.11-.06.28-.09.79-.04.47-.04,1.25-.06,1.46-.01.21-.05.3-.16.3-.13,0-.15-.1-.15-.3,0-.55-.3-1.13-.78-1.45-.65-.42-2.07-.81-3.69-.81-2.45,0-3.6.55-4.24,1.03-1.35.99-1.66,2.26-1.66,3.71,0,2.71,2.71,5.2,6.66,5.2,1.39,0,2.48-.13,3.22-.71.39-.31.62-.94.68-1.19.03-.16.07-.21.18-.21.09,0,.13.1.13.21,0,.1-.22,1.33-.41,1.82-.11.27-.15.3-.48.41-.74.23-2.14.33-3.32.33-2.77,0-4.64-.53-6.09-1.54"/>
        <path class="cls-1" d="m83.76,30.54c0,1.36,0,2.48.09,3.08.05.41.16.72.72.78.26.03.66.06.83.06.11,0,.15.04.15.09,0,.07-.09.11-.29.11-1.02,0-2.18-.04-2.27-.04-.09,0-1.26.04-1.81.04-.2,0-.3-.03-.3-.11,0-.05.04-.09.15-.09.17,0,.39-.03.56-.06.37-.06.46-.37.53-.78.09-.6.09-1.72.09-3.08v-1.49c0-.06-.05-.09-.11-.09h-7.83c-.06,0-.12.02-.12.09v1.49c0,1.36,0,2.48.1,3.08.05.41.17.72.72.78.26.03.66.06.83.06.11,0,.15.04.15.09,0,.07-.09.11-.3.11-1.01,0-2.18-.04-2.27-.04s-1.25.04-1.81.04c-.21,0-.3-.03-.3-.11,0-.05.04-.09.15-.09.17,0,.39-.03.55-.06.37-.06.46-.37.53-.78.09-.6.09-1.72.09-3.08v-2.5c0-2.21,0-2.61-.04-3.07-.04-.48-.18-.71-.79-.81-.15-.03-.46-.04-.63-.04-.07,0-.15-.03-.15-.08,0-.08.09-.11.3-.11.83,0,1.99.04,2.08.04s1.26-.04,1.81-.04c.21,0,.3.03.3.11,0,.06-.08.08-.15.08-.13,0-.24.01-.46.04-.5.07-.64.31-.68.81-.04.46-.04.85-.04,3.07v.3c0,.07.06.08.12.08h7.83c.06,0,.11-.01.11-.08v-.3c0-2.21,0-2.61-.03-3.07-.03-.48-.18-.71-.8-.81-.14-.03-.46-.04-.63-.04-.07,0-.15-.03-.15-.08,0-.08.09-.11.3-.11.83,0,1.99.04,2.09.04.09,0,1.25-.04,1.8-.04.21,0,.3.03.3.11,0,.06-.08.08-.15.08-.13,0-.25.01-.47.04-.49.07-.64.31-.68.81-.04.46-.04.85-.04,3.07v2.5Z"/>
        <path class="cls-1" d="m88.3,28.04c0-2.21,0-2.61-.04-3.07-.04-.48-.18-.71-.79-.81-.15-.03-.46-.04-.63-.04-.07,0-.15-.03-.15-.08,0-.09.09-.11.29-.11.83,0,2,.04,2.09.04.13,0,3.8,0,4.23-.01.35-.01.65-.04.8-.07.09-.02.16-.07.25-.07.06,0,.07.06.07.13,0,.1-.09.27-.15.67-.02.14-.06.77-.09.94-.02.07-.06.15-.13.15-.11,0-.15-.07-.15-.18,0-.1-.01-.34-.11-.51-.12-.23-.31-.4-1.31-.49-.31-.03-2.33-.04-2.53-.04-.08,0-.11.04-.11.14v3.92c0,.1.02.14.11.14.24,0,2.51,0,2.94-.03.44-.03.7-.05.87-.2.13-.11.2-.18.27-.18.06,0,.09.03.09.12s-.09.32-.14.79c-.04.28-.08.81-.08.91,0,.11,0,.27-.13.27-.09,0-.13-.06-.13-.13,0-.14,0-.28-.07-.47-.07-.2-.24-.44-.96-.49-.5-.04-2.32-.07-2.64-.07-.09,0-.13.04-.13.1v1.25c0,.48-.02,2.13,0,2.43.06.98.33,1.17,2.14,1.17.48,0,1.29,0,1.78-.16.48-.16.7-.44.83-1.02.04-.15.08-.21.17-.21.12,0,.12.12.12.21,0,.11-.15,1.08-.24,1.38-.13.37-.28.37-1,.37-2.79,0-4.02-.09-4.56-.09-.09,0-1.26.04-1.81.04-.2,0-.3-.03-.3-.11,0-.05.04-.09.15-.09.17,0,.39-.03.56-.06.37-.06.46-.37.53-.78.1-.6.1-1.72.1-3.08v-2.5Z"/>
      </g>
    </g>
  </g>
</svg>