<?xml version="1.0" encoding="UTF-8"?>
<svg id="_レイヤー_2" data-name="レイヤー 2" xmlns="http://www.w3.org/2000/svg" viewBox="0 0 187.77 41.14">
  <defs>
    <style>
      .cls-1 {
        fill: none;
      }

      .cls-1, .cls-2, .cls-3, .cls-4, .cls-5 {
        stroke-width: 0px;
      }

      .cls-2 {
        fill: #231815;
      }

      .cls-3 {
        fill: #009a53;
      }

      .cls-4 {
        fill: #e83820;
      }

      .cls-5 {
        fill: #004190;
      }
    </style>
  </defs>
  <g id="_レイヤー_1-2" data-name="レイヤー 1">
    <g>
      <g>
        <g>
          <path class="cls-2" d="m2.07,4.99l-.19.11L.51,2.6,1.88.09l.19.11L.76,2.6l1.3,2.4Z"/>
          <path class="cls-2" d="m4.59,1.3h-1.28c-.32,0-.43,0-.56.03l-.09-.19c.32.03.69.03.74.03h.54l.21-.23s.05-.07.08-.07c.04,0,.06.03.1.06l.29.23s.05.05.05.08c0,.05-.05.06-.08.06Zm-.28.65h-.76c-.32,0-.43.01-.56.03l-.08-.19c.29.03.6.03.81.03l.18-.2s.05-.07.08-.07c.03,0,.06.03.1.06l.26.2s.05.05.05.08c0,.05-.05.06-.08.06Zm.03-1.31h-.76c-.32,0-.43,0-.56.04l-.09-.19c.29.03.6.03.81.03l.2-.2s.05-.07.08-.07c.04,0,.06.03.1.06l.24.2s.05.05.05.08c0,.05-.04.06-.08.06Zm.06,2.77c0,.47,0,.53,0,.67,0,.06.03.32.03.37,0,.19-.2.25-.29.25-.15,0-.16-.14-.16-.27h-.58c-.01.34-.01.51-.3.51-.04,0-.17-.02-.17-.16,0-.03,0-.09,0-.13.04-.29.04-.72.04-.85,0-.27,0-.64-.04-.89l.49.25h.49l.16-.17s.06-.07.1-.07.08.04.11.06l.22.17s.04.04.04.06c0,.04-.06.1-.16.2Zm-.08-.83h-.72c-.32,0-.43,0-.56.04l-.08-.19c.29.03.6.03.81.03l.16-.19s.05-.06.08-.06c.03,0,.05.03.09.06l.25.19s.05.05.05.08c0,.05-.05.06-.08.06Zm-.34.72h-.58v1.01h.58v-1.01Zm2.98,1.54c-.24-.08-.79-.28-1.23-.73-.08.07-.79.75-1.71.81v-.03c.56-.25,1.08-.59,1.48-1.05-.27-.39-.37-.76-.42-1.06-.15,0-.23.02-.29.03l-.08-.19c.32.03.68.03.74.03h.68l.18-.18s.06-.05.09-.05.06.04.09.06l.25.22s.05.05.05.08c0,.07-.03.08-.27.18-.06.14-.21.51-.56.91.35.23.8.42,1.42.46v.03c-.23.1-.35.31-.42.49Zm.22-2.79c-.12.06-.24.07-.58.07-.43,0-.59,0-.67-.2-.04-.1-.04-1.02-.04-1.19v-.05s-.42,0-.42,0c.02.89-.22,1.32-.79,1.7l-.02-.02c.33-.47.41-.9.41-1.38,0-.3-.04-.53-.06-.66l.47.24h.41l.15-.13s.06-.07.09-.07c.02,0,.06.03.08.05l.23.19s.05.04.05.07-.02.06-.04.08c-.03.03-.1.08-.13.11,0,.15-.01.57-.01.73,0,.07,0,.12.14.12.31,0,.35-.02.42-.23.02-.07.1-.39.11-.45h.03c.07.35.12.57.24.61.1.04.11.04.11.1,0,.08-.05.23-.19.3Zm-1.83.71h-.19c.1.33.27.61.52.86.21-.29.34-.53.42-.86h-.75Z"/>
          <path class="cls-2" d="m9.62,1.27l.19-.24c.04-.05.05-.06.08-.06.04,0,.08.04.1.05l.25.24s.05.05.05.08c0,.05-.04.06-.08.06h-1.76c-.32,0-.43.01-.56.03l-.08-.19c.24.02.49.03.74.03h1.08Zm-.46-.63l.18-.23s.05-.07.08-.07.06.03.09.06l.27.23s.05.05.05.08c0,.05-.04.05-.08.05h-1c-.32,0-.43.02-.56.04l-.09-.19c.25.03.49.03.74.03h.32Zm0,1.28l.18-.24s.06-.07.08-.07c.03,0,.08.04.09.06l.27.24s.05.05.05.08c0,.05-.05.06-.08.06h-1.01c-.32,0-.43,0-.56.04l-.08-.19c.24.02.49.03.74.03h.32Zm.03.58l.15-.21c.04-.05.06-.07.08-.07s.03,0,.1.06l.3.21s.06.04.06.08c0,.05-.05.06-.08.06h-1.02c-.32,0-.43,0-.56.03l-.08-.19c.24.02.49.03.74.03h.32Zm.21.65l.16-.2s.07-.07.1-.07c.03,0,.08.05.1.07l.23.21s.03.03.03.07c0,.03-.06.1-.12.11,0,.28,0,.51,0,.77,0,.05.02.24.02.28,0,.2-.17.26-.28.26-.1,0-.19-.03-.18-.26h-.85s0,.19,0,.22c0,.24-.2.27-.29.27-.08,0-.19-.04-.19-.18,0-.03.01-.14.02-.17,0-.05.02-.2.02-.51,0-.62-.02-.92-.05-1.14l.52.26h.75Zm-.79.12v1h.85v-1h-.85Zm3.21-1.41l.23-.3c.04-.05.05-.07.08-.07.02,0,.04.01.1.06l.35.3s.05.05.05.08c0,.05-.04.06-.08.06h-1.13c.01,1.81.02,2.01.03,2.32.01.22.01.25.01.3,0,.12,0,.35-.32.35-.18,0-.19-.12-.19-.21,0-.13.03-.7.03-.81,0-.32,0-.49.02-1.96h-.29c-.32,0-.43,0-.56.04l-.08-.19c.24.02.49.03.74.03h.19c-.02-1.18-.02-1.28-.15-1.66l.65.16c.09.02.11.04.11.07,0,.07-.11.13-.18.16v1.28h.39Z"/>
          <path class="cls-2" d="m14.06,3.05c-.25,0-.46-.2-.46-.46s.21-.46.46-.46.46.2.46.46-.2.46-.46.46Z"/>
          <path class="cls-2" d="m17.77,1.45h-1.25l.34.14s.08.05.08.08c0,.05-.08.1-.16.14,0,.17-.01.29-.02.47h.26l.11-.12s.06-.08.08-.08c.04,0,.06.03.09.05l.22.18c.05.04.08.08.08.11,0,.03-.03.05-.06.07-.03.02-.05.04-.07.06-.02.09-.05,1.02-.07,1.2-.1.81-.15.86-.26.96-.16.16-.34.21-.52.21-.06-.23-.08-.31-.34-.59l.02-.03c.23.06.43.08.48.08.06,0,.12,0,.18-.31.07-.4.1-1.26.1-1.41s0-.2-.01-.27h-.31c-.07.86-.19,1.71-1.07,2.45l-.03-.03c.47-.71.7-1.87.7-2.77,0-.32-.02-.47-.07-.61-.35,0-.47.02-.57.04l-.08-.19c.31.03.68.03.74.03h.12c0-.33-.05-.79-.14-1.1l.63.17s.09.05.09.08c0,.06-.13.13-.16.15v.7h.29l.19-.19s.06-.07.08-.07c.03,0,.05.02.09.06l.22.19s.05.05.05.08c0,.05-.04.06-.08.06Zm2.3,3.3c-.21.08-.61.08-.95.08-.88,0-.95,0-1.05-.07-.17-.11-.17-.33-.17-.47,0-.05,0-.78,0-.91v-.4c-.13.05-.19.07-.25.1l-.14-.16c.06-.01.32-.07.39-.09,0-.52,0-.61-.07-.81l.53.16s.08.04.08.07c0,.05-.15.16-.15.16,0,.05,0,.26,0,.32l.42-.12c0-.66-.06-.89-.1-1.04l.51.16c.07.02.09.05.09.09s-.02.05-.13.15v.53l.36-.11.14-.19c.05-.06.06-.08.08-.08s.07.02.08.03l.24.12s.08.05.08.1c0,.06-.13.16-.16.17,0,.15,0,.92,0,1.03-.01.37-.25.55-.49.58-.06-.35-.21-.45-.31-.52v-.06c.06,0,.28.04.32.04.06,0,.1-.01.1-.16s.01-.83,0-.96l-.47.14c0,.23,0,.48,0,.68,0,.12.02.66.02.77,0,.16-.07.24-.23.24-.19,0-.2-.1-.2-.18,0-.17.03-.83.03-1.12v-.29l-.42.12c0,.49,0,1,0,1.14,0,.36,0,.41.06.42.07.03.71.03.8.03.5,0,.63-.04.71-.17.03-.06.18-.44.21-.52h.04c.03.19.06.46.12.54.01.02.07.1.09.11.01.02.01.06.01.08,0,.08-.12.21-.24.26Zm.09-3.33h-1.82c-.13.18-.35.44-.71.76l-.03-.02c.52-.87.74-1.67.74-1.99l.55.3s.06.05.06.09c0,.09-.12.09-.19.09-.15.3-.24.49-.34.65h1.08l.23-.26s.06-.07.08-.07c.03,0,.07.04.09.06l.28.26s.05.05.05.08c0,.05-.05.06-.08.06Z"/>
          <path class="cls-2" d="m25.45,4.49h-4.02c-.36,0-.46.02-.56.04l-.08-.19c.24.02.49.03.74.03h1.37V1.04h-1.1c-.36,0-.46.02-.56.04l-.08-.19c.24.02.49.03.74.03h2.48l.24-.34s.05-.07.08-.07.05.02.1.05l.42.35s.05.05.05.08c0,.06-.05.06-.08.06h-1.84v3.33h1.28l.3-.35c.05-.06.06-.07.08-.07s.07.04.09.06l.38.35s.05.05.05.08c0,.06-.05.06-.08.06Z"/>
          <path class="cls-2" d="m27.04,3.05c-.25,0-.46-.2-.46-.46s.21-.46.46-.46.46.2.46.46-.2.46-.46.46Z"/>
          <path class="cls-2" d="m33.16,4.71h-3.96c-.32,0-.43.01-.57.03l-.08-.19c.32.03.69.03.74.03h.08c0-.99,0-1.13-.06-1.53l.55.27h1.96l.17-.17s.06-.06.09-.06c.03,0,.08.03.1.05l.22.18c.06.04.06.07.06.09,0,.07-.12.14-.17.17-.01.29-.01.68,0,1h.21l.2-.25c.04-.05.05-.07.08-.07.03,0,.07.04.1.06l.3.25s.05.05.05.08c0,.05-.05.06-.08.06Zm-2.13-1.76h-1.76c0,.17.01.32-.27.32-.15,0-.18-.07-.18-.17,0-.08.04-.82.04-1.23,0-.46,0-.86-.02-1.16,0-.2-.03-.27-.06-.38l.54.26h.96l.21-.22c.06-.06.06-.07.08-.07s.03,0,.1.06l.3.22s.05.05.05.08c0,.05-.05.06-.08.06h-.85v.62h.23l.12-.13s.06-.05.08-.05.03,0,.08.04l.23.13s.08.04.08.09c0,.07-.09.15-.13.18,0,.09,0,.52,0,.62,0,.24-.25.25-.28.25-.17,0-.17-.08-.16-.26h-.25v.62h.3l.19-.24s.05-.07.08-.07c.02,0,.04.02.09.06l.3.24s.05.05.05.08c0,.06-.05.06-.08.06Zm-1.34-2.23h-.42v.62h.42v-.62Zm.65.74h-1.07v.62h1.07v-.62Zm-.67.74h-.41v.62h.41v-.62Zm.53,1.24h-.39v1.14h.39v-1.14Zm.82,0h-.39v1.14h.39v-1.14Zm2.09-2.1h-1.56c-.23.34-.45.62-.68.8l-.03-.03c.23-.35.38-.74.51-1.14.17-.5.16-.62.14-.79l.54.28s.06.06.06.08c0,.08-.08.1-.19.13-.05.12-.11.25-.3.55h.8l.22-.26c.04-.05.05-.06.08-.06.02,0,.04,0,.1.05l.31.26s.05.04.05.08c0,.05-.05.05-.08.05Zm-.22,1.13h-1.01c-.32,0-.43.01-.56.03l-.08-.19c.32.03.68.03.74.03h.24l.19-.29s.05-.07.08-.07c.03,0,.07.04.09.06l.33.29s.05.04.05.08c0,.05-.04.06-.08.06Zm-1.02.97h-.44v1.14h.44v-1.14Z"/>
          <path class="cls-2" d="m35.04.89v1.28h.03l.19-.25s.06-.06.08-.06c.03,0,.08.04.09.05l.27.25s.05.05.05.08c0,.06-.05.06-.08.06h-.64v1.11c.11-.04.65-.25.77-.3l.02.04c-.29.24-.69.53-1.54,1.04-.04.16-.08.19-.12.19-.05,0-.08-.05-.1-.09l-.29-.56c.3.02.59-.08.84-.17v-1.26c-.37,0-.47.02-.58.04l-.08-.19c.2.02.24.02.66.03V.89h-.09c-.36,0-.46.02-.56.04l-.08-.19c.24.02.49.03.74.03h.45l.18-.2c.05-.06.05-.07.08-.07.02,0,.07.04.1.06l.26.2s.05.05.05.07c0,.06-.05.06-.08.06h-.62Zm2.47,2.65l.23-.24s.06-.07.09-.07c.02,0,.06.03.09.05l.3.25s.05.05.05.08c0,.05-.05.05-.08.05h-1.04v.95h.61l.23-.29c.04-.05.05-.06.08-.06s.05.01.1.05l.34.29s.05.05.05.08c0,.05-.04.06-.08.06h-2.84c-.32,0-.43.01-.56.04l-.08-.19c.32.03.68.03.74.03h1v-.95h-.29c-.32,0-.43.02-.57.04l-.08-.19c.32.03.69.03.74.03h.2v-.85h-.51c0,.15,0,.35-.26.35-.17,0-.18-.12-.18-.18,0-.05.01-.27.01-.32.01-.3.01-.88.01-1.19,0-.67-.01-.81-.07-1l.53.26h1.36l.16-.18s.05-.05.07-.05c.03,0,.05.02.09.05l.27.22s.03.04.03.07c0,.07-.07.12-.16.19,0,.17,0,.44,0,.85,0,.14.03.78.03.91,0,.05,0,.12-.06.19-.06.06-.15.09-.23.09-.19,0-.18-.15-.18-.26h-.5v.85h.36Zm-1.29-2.8v.83h.51v-.83h-.51Zm0,.96v.87h.51v-.87h-.51Zm1.44-.12v-.83h-.51v.83h.51Zm0,.99v-.87h-.51v.87h.51Z"/>
          <path class="cls-2" d="m40.33,2.6l-1.3-2.4.19-.11,1.36,2.51-1.36,2.51-.19-.11,1.3-2.4Z"/>
        </g>
        <g>
          <g>
            <rect class="cls-5" x=".73" y="12.37" width="6.74" height="17.7"/>
            <path class="cls-4" d="m14.29,21.22c0,1.85-1.5,3.35-3.35,3.35s-3.35-1.5-3.35-3.35,1.5-3.35,3.35-3.35,3.35,1.5,3.35,3.35Z"/>
            <polygon class="cls-3" points="21.98 30.07 12.17 30.07 17.07 11.69 21.98 30.07"/>
            <g>
              <path class="cls-2" d="m21.25,34.06c-.11-.55-.59-.88-1.45-.88s-1.34.33-1.45.88c-.03.14-.05.33-.05.53v4.46c0,.2.02.39.05.52.11.56.59.88,1.45.88s1.34-.33,1.45-.88c.03-.13.05-.33.05-.52v-4.46c0-.2-.02-.39-.05-.53Zm-.77,5.45c0,.34-.23.51-.68.51s-.68-.17-.68-.51v-5.39c0-.34.23-.51.68-.51s.68.17.68.51v5.39Z"/>
              <polygon class="cls-2" points="3.32 33.27 3.32 36.48 1.63 36.48 1.63 33.27 .82 33.27 .82 40.37 1.63 40.37 1.63 36.94 3.32 36.94 3.32 40.37 4.14 40.37 4.14 33.27 3.32 33.27"/>
              <polygon class="cls-2" points="14.31 33.77 14.31 33.27 11.83 33.27 11.83 40.37 14.31 40.37 14.31 39.88 12.65 39.88 12.65 36.92 14.16 36.92 14.16 36.45 12.65 36.45 12.65 33.77 14.31 33.77"/>
              <g>
                <rect class="cls-2" x="14.9" y="33.27" width=".82" height="7.09"/>
                <polygon class="cls-2" points="16.43 36.13 17.8 33.27 17.28 33.27 15.72 36.54 17.36 40.37 18.25 40.37 16.43 36.13"/>
              </g>
              <path class="cls-2" d="m6.81,33.27h-1l-1.42,7.09h.53l.39-1.97h1.69l.39,1.97h.83l-1.42-7.09Zm-1.4,4.66l.75-3.75.75,3.75h-1.5Z"/>
              <path class="cls-2" d="m8.76,35.95c-.2-.29-.33-.72-.34-1.12,0-.2,0-.48.02-.64.06-.66.66-1.01,1.4-1.01.88,0,1.4.43,1.4,1.07v.94h-.83v-1.08c0-.3-.18-.48-.52-.48-.43,0-.57.15-.61.45-.02.19-.02.5-.02.68,0,.4.15.65.29.86.25.37.97,1.19,1.34,1.67.28.37.38.6.43,1.13.02.22.02.75,0,1.01-.07.68-.75,1.03-1.48,1.03-.86,0-1.44-.43-1.44-.95v-1.23h.84v1.24c0,.39.31.48.65.48.42,0,.57-.15.6-.45.03-.28.02-.72,0-.95-.01-.37-.06-.54-.29-.84-.26-.34-1.2-1.45-1.45-1.82Z"/>
            </g>
            <rect class="cls-1" x=".73" y="12.37" width="20.56" height="28"/>
          </g>
          <g>
            <path class="cls-2" d="m44.47,22.78h-10.77v-.78h9.35v-1.46h-9.35v-.86h9.35v-1.45h-9.35v-.76h9.47v-1.55h-11.31v6.86h-2.47v1.55h2.18v4.03c-.52.03-1,.05-1.44.06v1.65c2.31-.03,5.41-.37,7.47-1.25v-1.65c-1.15.52-2.68.84-4.18,1.02v-3.86h2.85c1.16,3.2,4.57,5.36,8.21,5.85v-1.65c-1.25-.17-2.58-.65-3.71-1.37.71-.47,1.98-1.49,2.58-2.27h-2.25c-.38.41-1.03,1.03-1.52,1.32-.56-.55-1.01-1.18-1.28-1.88h6.19v-1.55Z"/>
            <path class="cls-2" d="m54.2,17.74h-2.32c-1.54,2.53-4.25,4.28-6.55,5.07v1.9c.72-.23,1.5-.56,2.29-.98v6.24h10.83v-6.24c.78.42,1.56.75,2.28.98v-1.9c-2.3-.8-5.01-2.54-6.54-5.07Zm2.45,10.64h-7.22v-3.51h7.22v3.51Zm-8.21-5.11c1.82-1.12,3.58-2.66,4.6-4.35,1.02,1.68,2.78,3.23,4.6,4.35h-9.2Z"/>
            <path class="cls-2" d="m51.56,15.72h-2.12c-.97,1.15-2.3,1.81-3.62,2.19v1.84c2.56-.71,5-2.79,5.74-4.04Z"/>
            <path class="cls-2" d="m60.26,19.76v-1.84c-1.33-.38-2.65-1.05-3.62-2.19h-2.11c.74,1.25,3.18,3.32,5.73,4.04Z"/>
            <polygon class="cls-2" points="68.91 28.23 68.91 17.66 74.52 17.66 74.52 15.93 61.42 15.93 61.42 17.66 67.03 17.66 67.03 28.23 60.97 28.23 60.97 29.97 74.97 29.97 74.97 28.23 68.91 28.23"/>
            <polygon class="cls-2" points="96.02 15.93 83.73 15.93 83.73 17.66 94.08 17.66 94.08 28.23 83.7 28.23 83.7 29.97 96.02 29.97 96.02 15.93"/>
            <polygon class="cls-2" points="122.58 18.48 116.34 18.48 116.34 15.62 114.45 15.62 114.45 18.48 108.21 18.48 108.21 20.21 114.45 20.21 114.45 30.19 116.34 30.19 116.34 20.21 122.58 20.21 122.58 18.48"/>
            <rect class="cls-2" x="97.28" y="21.86" width="10.56" height="1.75"/>
            <rect class="cls-2" x="138.26" y="21.86" width="10.57" height="1.75"/>
            <path class="cls-2" d="m163.14,20.15h-1.83c-1.21,4.28-5.13,7.88-11.07,7.98v1.84c6.65-.16,11.76-4.55,12.89-9.81Z"/>
            <path class="cls-2" d="m135.79,20.11c-1.07,3.8-4.07,7.07-8.9,7.81v-12.21h-1.89v14.26h.01c.64-.02,1.27-.07,1.87-.16,5.67-.87,9.71-4.94,10.72-9.7h-1.82Z"/>
            <rect class="cls-2" x="150.25" y="15.93" width="6.12" height="1.71"/>
            <path class="cls-2" d="m187.16,20.15h-1.82c-1.21,4.28-5.14,7.88-11.07,7.98v1.84c6.64-.16,11.76-4.55,12.89-9.81Z"/>
            <rect class="cls-2" x="174.27" y="15.93" width="6.11" height="1.71"/>
            <rect class="cls-2" x="150.25" y="20.33" width="6.12" height="1.71"/>
            <polygon class="cls-2" points="164.43 20.31 164.43 22 170.68 22 170.68 24.28 164.43 24.28 164.43 25.93 170.68 25.93 170.68 28.29 164.43 28.29 164.43 29.98 172.53 29.98 172.53 20.31 164.43 20.31"/>
            <path class="cls-2" d="m108.21,27.07v2.41c1.83-1.03,3.83-3.16,4.14-7.76h-1.89c-.18,2.88-1.12,4.45-2.25,5.35Z"/>
            <path class="cls-2" d="m122.58,27.07v2.41c-1.83-1.03-3.84-3.16-4.14-7.76h1.88c.18,2.88,1.12,4.45,2.25,5.35Z"/>
            <path class="cls-2" d="m122.74,16.25c0,.98-.79,1.77-1.77,1.77s-1.77-.79-1.77-1.77.79-1.77,1.77-1.77,1.77.79,1.77,1.77Zm-1.77-.82c-.45,0-.82.37-.82.82s.36.82.82.82.82-.37.82-.82-.37-.82-.82-.82Z"/>
          </g>
        </g>
      </g>
      <rect class="cls-1" width="187.77" height="41.14"/>
    </g>
  </g>
</svg>