<?xml version="1.0" encoding="UTF-8"?>
<svg id="_レイヤー_2" data-name="レイヤー 2" xmlns="http://www.w3.org/2000/svg" viewBox="0 0 121.1 41.14">
  <defs>
    <style>
      .cls-1 {
        fill: none;
      }

      .cls-1, .cls-2, .cls-3, .cls-4, .cls-5, .cls-6, .cls-7 {
        stroke-width: 0px;
      }

      .cls-3 {
        fill: #0e9256;
      }

      .cls-4 {
        fill: #1d4185;
      }

      .cls-5 {
        fill: #231815;
      }

      .cls-6 {
        fill: #bd3d26;
      }

      .cls-7 {
        fill: #040000;
      }
    </style>
  </defs>
  <g id="_レイヤー_1-2" data-name="レイヤー 1">
    <g>
      <g>
        <g>
          <rect class="cls-4" x=".31" y="12.25" width="6.8" height="17.87"/>
          <path class="cls-6" d="m13.99,21.18c0,1.87-1.51,3.38-3.38,3.38s-3.38-1.52-3.38-3.38,1.51-3.38,3.38-3.38,3.38,1.51,3.38,3.38Z"/>
          <polygon class="cls-3" points="21.74 30.11 11.85 30.11 16.8 11.56 21.74 30.11"/>
          <g>
            <path class="cls-2" d="m21.01,34.14c-.11-.56-.59-.89-1.46-.89s-1.35.33-1.46.89c-.03.14-.05.33-.05.53v4.5c0,.2.02.39.05.53.11.56.59.89,1.46.89s1.35-.33,1.46-.89c.03-.14.05-.33.05-.53v-4.5c0-.2-.02-.39-.05-.53Zm-.78,5.5c0,.35-.23.51-.69.51s-.69-.17-.69-.51v-5.44c0-.34.23-.51.69-.51s.69.17.69.51v5.44Z"/>
            <polygon class="cls-2" points="2.92 33.34 2.92 36.57 1.21 36.57 1.21 33.34 .39 33.34 .39 40.5 1.21 40.5 1.21 37.04 2.92 37.04 2.92 40.5 3.74 40.5 3.74 33.34 2.92 33.34"/>
            <polygon class="cls-2" points="14 33.84 14 33.34 11.5 33.34 11.5 40.5 14 40.5 14 40 12.33 40 12.33 37.02 13.86 37.02 13.86 36.55 12.33 36.55 12.33 33.84 14 33.84"/>
            <g>
              <rect class="cls-2" x="14.61" y="33.34" width=".82" height="7.16"/>
              <polygon class="cls-2" points="16.15 36.23 17.53 33.34 17.01 33.34 15.43 36.64 17.09 40.5 17.99 40.5 16.15 36.23"/>
            </g>
            <path class="cls-2" d="m6.43,33.34h-1l-1.43,7.16h.53l.4-1.99h1.7l.4,1.99h.84l-1.43-7.16Zm-1.41,4.7l.76-3.79.76,3.79h-1.51Z"/>
            <path class="cls-2" d="m8.41,36.04c-.2-.3-.34-.73-.34-1.13,0-.2,0-.48.02-.64.06-.67.67-1.02,1.42-1.02.89,0,1.41.44,1.41,1.08v.95h-.84v-1.09c0-.3-.18-.48-.52-.48-.44,0-.58.16-.61.45-.02.19-.02.5-.02.68,0,.41.15.65.3.87.25.37.98,1.2,1.36,1.69.29.38.38.61.43,1.14.02.22.02.76,0,1.02-.06.69-.76,1.04-1.49,1.04-.87,0-1.45-.43-1.45-.96v-1.24h.85v1.26c0,.39.31.48.65.48.43,0,.58-.15.6-.45.03-.29.02-.73.01-.95-.01-.38-.06-.54-.3-.85-.26-.34-1.21-1.46-1.46-1.84Z"/>
          </g>
          <rect class="cls-1" x=".31" y="12.25" width="20.75" height="28.26"/>
        </g>
        <g>
          <path class="cls-7" d="m43.11,22.75h-10.87v-.79h9.43v-1.47h-9.43v-.87h9.43v-1.47h-9.43v-.77h9.55v-1.56h-11.42v6.92h-2.49v1.56h2.2v4.06c-.52.03-1.01.05-1.46.06v1.66c2.33-.03,5.46-.38,7.54-1.26v-1.67c-1.16.52-2.7.85-4.22,1.03v-3.89h2.87c1.17,3.24,4.61,5.41,8.29,5.91v-1.67c-1.27-.18-2.61-.66-3.74-1.39.72-.47,2-1.51,2.6-2.29h-2.27c-.38.42-1.04,1.04-1.53,1.33-.57-.55-1.02-1.19-1.29-1.9h6.24v-1.56Z"/>
          <path class="cls-7" d="m52.93,17.65h-2.34c-1.55,2.55-4.29,4.32-6.61,5.12v1.92c.73-.23,1.51-.57,2.31-.99v6.29h10.93v-6.29c.79.42,1.58.76,2.3.99v-1.92c-2.32-.8-5.05-2.57-6.6-5.12Zm2.48,10.74h-7.29v-3.54h7.29v3.54Zm-8.29-5.16c1.84-1.13,3.61-2.69,4.64-4.39,1.03,1.7,2.8,3.26,4.65,4.39h-9.29Z"/>
          <path class="cls-7" d="m50.26,15.61h-2.13c-.98,1.16-2.32,1.83-3.66,2.21v1.86c2.58-.72,5.05-2.81,5.79-4.07Z"/>
          <path class="cls-7" d="m59.05,19.69v-1.86c-1.34-.38-2.67-1.06-3.66-2.21h-2.13c.74,1.26,3.21,3.35,5.79,4.07Z"/>
          <polygon class="cls-7" points="67.77 28.25 67.77 17.58 73.44 17.58 73.44 15.82 60.21 15.82 60.21 17.58 65.87 17.58 65.87 28.25 59.76 28.25 59.76 30 73.89 30 73.89 28.25 67.77 28.25"/>
          <g>
            <path class="cls-7" d="m83.97,17.79c-.31.66-.69,1.32-1.11,1.94v10.29h-1.71v-8.16c-1.78,1.93-4.04,3.57-6.44,4.65v-1.97c3.23-1.5,5.92-3.99,7.38-6.75h-7.3v-1.61h14.41v1.61h-5.23Zm-.44,4.45v-2.16c1.71,1.41,4.79,3.74,5.61,4.51v2.21c-.69-.72-4.16-3.39-5.61-4.56Z"/>
            <path class="cls-7" d="m108.66,21.11v1c0,4.1-.8,6.64-2.66,8.02v-2.6c.69-.99.97-2.32.97-5.39v-2.46h3.02c-.16-.56-.39-1.22-.6-1.72h-2.75v-1.39h5.76v-.92h1.75v.92h5.95v1.39h-2.76l-.59,1.72h3.71v1.43h-11.81Zm-.05,8.91v-1.44h5.39v-1.74h-4.04v-1.25h4.04v-1.49h-2.98c-.59.81-1.31,1.53-2.11,2.15v-1.99c.78-.67,1.5-1.66,1.94-2.74h1.49c-.14.42-.33.86-.52,1.27h2.18v-1.27h1.63v1.27h4.35v1.32h-4.35v1.49h4.15v1.25h-4.15v1.74h4.86v1.44h-11.87Zm2.51-12.06c.2.5.42,1.16.58,1.72h3.39l.59-1.72h-4.56Z"/>
            <g>
              <path class="cls-7" d="m101.85,18.26v-2.52h-1.55v2.52h-1.44v1.68h1.44v1.06s.04,4.11-2.13,9.06h1.69c2.05-4.98,2.01-8.91,2-9.07v-1.04h1.31c0,2.77-.05,5.84-.24,7.24-.12,1-.31,1.16-1.08,1.16h-.75v1.72h.92c1.38,0,2.13-.33,2.33-2.15.2-1.68.25-5.23.25-8.44v-1.21h-2.76Z"/>
              <path class="cls-7" d="m98.28,29.21v-1.35c-.67.17-1.65.31-2.73.42v-1.02h2.91v-1.13h-2.91v-.94h2.9v-4.92h-2.9v-.91h3.06v-1.22h-3.06v-.96c1.16-.08,2.16-.19,2.76-.3v-1.22c-1.66.36-4.86.53-7.33.53v1.17c.92-.02,2.04-.05,3.1-.09v.86h-3.57v1.22h3.57v.91h-3.02v4.92h3.02v.94h-3.04v1.13h3.04v1.14c-1.21.08-2.47.13-3.57.13v1.32c2.59,0,6.36-.31,7.74-.63l.03-.02Zm-2.8-7.92h1.72v1.05h-1.72v-1.05Zm-1.32,2.94h-1.82v-1.05h1.82v1.05Zm0-1.89h-1.82v-1.05h1.82v1.05Zm1.32.85h1.72v1.05h-1.72v-1.05Z"/>
            </g>
          </g>
        </g>
      </g>
      <g>
        <path class="cls-5" d="m5.37,3.83h-.83c0,.19,0,.19,0,.27,0,.07.03.37.03.44,0,.17-.19.24-.3.24-.17,0-.17-.1-.16-.31h-.93c.01.5.01.6-.04.73-.13.37-.49.45-.61.47-.08-.33-.25-.49-.65-.66v-.03c.12.01.46.05.66.05.03,0,.14,0,.17-.06.03-.06.03-.1.04-.49h-.97c-.32,0-.43.01-.56.04l-.08-.19c.31.03.68.03.74.03h.88v-.51s-1.54,0-1.54,0c-.32,0-.43.01-.56.04l-.09-.19c.32.03.69.03.74.03h1.45v-.51h-1.04c-.32,0-.43.01-.56.04l-.09-.19c.32.03.68.03.74.03h.95v-.5h-.92c0,.09.02.3-.28.3-.1,0-.17-.05-.17-.15,0-.02,0-.05,0-.08.01-.13.03-.29.03-.38,0-.45-.02-.52-.04-.66l.49.23h.88v-.39h-1.37c-.32,0-.43.02-.56.04l-.09-.19c.32.03.69.03.74.03h1.28c0-.12-.03-.38-.1-.61l.62.2s.09.03.09.07c0,.06-.13.11-.2.15,0,.03,0,.17,0,.2h1.17l.22-.28s.05-.07.08-.07.07.04.1.06l.37.27s.05.04.05.08c0,.05-.05.05-.08.05h-1.91c0,.06,0,.34,0,.39h.9l.13-.12s.06-.06.08-.06c.02,0,.05.02.08.05l.24.19s.05.04.05.07c0,.05-.09.1-.13.12,0,.12.01.43,0,.49-.02.13-.16.22-.28.22-.15,0-.15-.12-.15-.22h-.93c0,.08,0,.43,0,.5h.91l.17-.19s.06-.05.08-.05c.02,0,.03,0,.08.05l.25.2s.04.04.04.07c0,.04-.05.08-.15.15,0,.07,0,.28,0,.42h.15l.23-.29s.06-.06.08-.06c.03,0,.07.03.09.06l.31.28s.05.05.05.08c0,.05-.05.06-.08.06Zm-2.6-1.87h-.91v.49h.92v-.49Zm1.32,0h-.93v.49h.93v-.49Zm.04,1.23h-.96v.51h.96v-.51Zm0,.63h-.96l.02.51h.94v-.51Z"/>
        <path class="cls-5" d="m10.48,2.02h-1.64l.28.17s.07.05.07.08c0,.07-.13.07-.18.07-.15.16-.3.26-.5.41h.84l.22-.25s.06-.06.08-.06c.04,0,.06.02.09.05l.27.25s.05.05.05.08c0,.05-.04.05-.08.05h-1.63s0,.34,0,.4h.64l.2-.21s.07-.07.09-.07c.03,0,.08.04.11.06l.3.2s.06.05.06.08c0,.05-.04.06-.08.06h-1.31v.46h1.21l.29-.3c.06-.06.07-.07.09-.07.03,0,.08.05.09.06l.32.29s.05.05.05.08c0,.05-.05.05-.08.05h-1.88c.34.37,1.04.85,2.01.94v.02c-.14.08-.38.22-.49.49-.96-.33-1.44-1.16-1.6-1.46h0c.02,1.02.03,1.13.04,1.3,0,.02,0,.06,0,.09,0,.18-.22.22-.3.22-.18,0-.18-.1-.18-.18s.03-1.13.04-1.32c-.43.61-1.27,1.18-2.05,1.32v-.03c.77-.4,1.17-.82,1.62-1.4h-.91c-.32,0-.43.02-.56.04l-.08-.19c.31.03.68.03.74.03h1.25v-.46h-.92c-.32,0-.43.01-.56.04l-.09-.19c.32.03.68.03.74.03h.83v-.4h-1.1c-.32,0-.43.02-.56.04l-.09-.19c.32.03.69.03.74.03h.52c-.05-.03-.08-.06-.14-.22-.09-.24-.13-.36-.25-.51h-.58c-.32,0-.43.01-.56.04l-.08-.19c.31.03.68.03.74.03h.99c0-.56-.03-.83-.08-1.07l.58.18s.07.03.07.07c0,.07-.11.11-.17.12-.02.27-.02.54-.02.7h.33c0-.75-.05-.9-.1-1.07l.59.16c.05.01.09.03.09.08,0,.07-.1.11-.18.15,0,.07-.02.66-.02.69h.19s.27-.5.28-.98l.5.25s.08.04.08.08c0,.07-.11.09-.16.1-.22.23-.54.53-.57.55h.73l.26-.26c.06-.06.07-.07.08-.07.03,0,.07.03.11.06l.31.25s.06.06.06.09c0,.05-.05.06-.08.06Zm-3.37-.19c-.14,0-.2-.12-.31-.37-.06-.15-.17-.29-.3-.39l.02-.04c.31.06.79.21.79.57,0,.09-.05.23-.21.23Zm.12.19c.43.16.58.32.58.52,0,.07-.03.16-.14.21h.69c.21-.37.24-.61.26-.73h-1.4Z"/>
        <path class="cls-5" d="m15.61,5.21h-3.88c-.36,0-.46.02-.56.03l-.08-.19c.24.02.49.03.74.03h1.28v-1.52h-.9c-.36,0-.46.02-.56.04l-.08-.19c.24.02.49.03.74.03h.8v-1.38h-1.08c-.36,0-.46.02-.56.04l-.08-.19c.24.02.49.03.74.03h2.38l.24-.28c.05-.06.06-.07.08-.07.02,0,.03.01.09.06l.39.27s.05.05.05.08c0,.06-.05.06-.08.06h-1.71v1.38h.71l.24-.27c.05-.06.06-.06.08-.06.02,0,.03,0,.09.05l.36.27s.05.05.05.08c0,.05-.05.06-.08.06h-1.46v1.52h1.29l.26-.31c.05-.06.06-.07.08-.07.03,0,.05.02.1.06l.35.3s.06.05.06.08c0,.05-.05.06-.08.06Zm-2.19-3.47c-.19,0-.25-.15-.32-.29-.1-.22-.23-.41-.48-.57v-.04c1.02.07,1.06.56,1.06.63,0,.07-.03.27-.27.27Z"/>
        <path class="cls-5" d="m18.2,5.71c-.65-.42-1.25-1.35-1.25-2.51s.6-2.09,1.25-2.51l.05.07c-.54.5-.94,1.45-.94,2.44s.39,1.94.94,2.44l-.05.07Z"/>
        <path class="cls-5" d="m20.87,3.27c.09.03.12.05.12.09,0,.07-.06.1-.17.15.03,1.05-.56,1.97-2.08,2.04v-.03c.94-.37,1.6-.82,1.6-1.92,0-.23-.04-.38-.06-.5l.58.17Zm1.73-.42l.21-.21s.05-.05.08-.05c.03,0,.08.04.09.05l.41.33s.06.06.06.1c0,.13-.32.12-.44.12,0,0-.4.28-.55.35l-.03-.02c.03-.06.16-.42.21-.55h-2.97c.03.38-.17.76-.48.76-.2,0-.26-.18-.26-.28,0-.12.02-.14.24-.36.29-.26.33-.46.36-.6h.03c.05.17.07.25.09.35h2.95Zm-.06-1.36l.21-.26c.04-.05.05-.06.08-.06s.03,0,.1.05l.34.26s.05.04.05.08c0,.05-.04.06-.08.06h-1.9v.56h.9l.19-.25c.04-.06.06-.06.08-.06s.03,0,.1.05l.33.25s.05.04.05.08c0,.05-.04.06-.08.06h-2.94c-.32,0-.43,0-.56.03l-.08-.19c.32.03.68.03.74.03h.85v-.56h-1.25c-.32,0-.43.01-.56.03l-.09-.19c.32.03.68.03.74.03h1.15c-.01-.45-.03-.55-.09-.72l.63.18s.08.03.08.08c0,.09-.13.15-.18.17,0,.07,0,.11,0,.29h1.2Zm-.59,1.75s.12.04.12.1c0,.05-.05.09-.17.16-.02.24-.04.56-.04,1.08,0,.33,0,.38.03.43.03.06.12.06.22.06.66,0,.73,0,.83-.33.05-.15.06-.21.14-.58h.04c.08.66.09.73.18.79.14.1.16.11.16.18s-.08.26-.35.33c-.14.03-.94.03-1.15.03-.56,0-.56-.42-.56-.61,0-.22,0-1.19,0-1.41,0-.25-.03-.31-.06-.38l.6.16Z"/>
        <path class="cls-5" d="m28.59,5.21h-3.88c-.36,0-.46.02-.56.03l-.08-.19c.24.02.49.03.74.03h1.28v-1.52h-.9c-.36,0-.46.02-.56.04l-.08-.19c.24.02.49.03.74.03h.8v-1.38h-1.08c-.36,0-.46.02-.56.04l-.08-.19c.24.02.49.03.74.03h2.38l.24-.28c.05-.06.06-.07.08-.07.02,0,.03.01.09.06l.39.27s.05.05.05.08c0,.06-.05.06-.08.06h-1.71v1.38h.71l.24-.27c.05-.06.06-.06.08-.06.02,0,.03,0,.09.05l.36.27s.05.05.05.08c0,.05-.05.06-.08.06h-1.46v1.52h1.29l.26-.31c.05-.06.06-.07.08-.07.03,0,.05.02.1.06l.35.3s.06.05.06.08c0,.05-.05.06-.08.06Zm-2.19-3.47c-.19,0-.25-.15-.32-.29-.1-.22-.23-.41-.48-.57v-.04c1.02.07,1.06.56,1.06.63,0,.07-.03.27-.27.27Z"/>
        <path class="cls-5" d="m29.3,5.71l-.05-.07c.54-.5.94-1.45.94-2.44s-.39-1.94-.94-2.44l.05-.07c.65.42,1.25,1.35,1.25,2.51s-.6,2.09-1.25,2.51Z"/>
      </g>
      <rect class="cls-1" width="121.1" height="41.14"/>
    </g>
  </g>
</svg>