<?xml version="1.0" encoding="UTF-8"?>
<svg id="_レイヤー_2" data-name="レイヤー 2" xmlns="http://www.w3.org/2000/svg" viewBox="0 0 153.82 41.14">
  <defs>
    <style>
      .cls-1 {
        fill: none;
      }

      .cls-1, .cls-2, .cls-3, .cls-4, .cls-5 {
        stroke-width: 0px;
      }

      .cls-2 {
        fill: #231815;
      }

      .cls-3 {
        fill: #009a53;
      }

      .cls-4 {
        fill: #e83820;
      }

      .cls-5 {
        fill: #004190;
      }
    </style>
  </defs>
  <g id="_レイヤー_1-2" data-name="レイヤー 1">
    <g>
      <g>
        <path class="cls-2" d="m2.03,4.99l-.19.11L.48,2.6,1.84.09l.19.11L.73,2.6l1.3,2.4Z"/>
        <path class="cls-2" d="m3.98.53l.11-.15s.05-.05.08-.05.06.02.1.05l.24.18s.05.05.05.09c0,.07-.05.11-.12.18-.01.52,0,1.41.03,2.07,0,.09.03.48.03.56,0,.18-.21.22-.3.22-.15,0-.16-.07-.17-.19h-.65s0,.09,0,.1l.38.25s.08.05.08.12c0,.06-.02.06-.2.09-.26.35-.58.61-1.07.83l-.02-.02c.37-.46.63-.88.73-1.17-.02.02-.08.05-.18.05-.11,0-.16-.05-.16-.16,0,0,0-.05,0-.13,0-.15,0-.2,0-.68,0-.29,0-1.83-.03-2.1-.02-.16-.03-.27-.05-.35l.46.2h.62Zm-.59.12v.81h.65v-.81h-.65Zm0,.93v.81h.65v-.81h-.65Zm0,.93v.83h.65v-.83h-.65Zm1.06,2.34c.77-.46,1.16-1.02,1.29-1.23-.25-.54-.38-1.29-.42-1.76h-.13c0,1.5-.24,2.21-1,2.89l-.03-.03c.05-.07.11-.17.21-.37-.03.03-.06.05-.13.05-.17,0-.21-.15-.25-.31-.04-.16-.12-.35-.23-.47l.02-.04c.07,0,.7.19.67.61.23-.53.34-1.05.34-2.23,0-.48-.02-1.15-.12-1.6l.53.24h1.21l.24-.28q.06-.06.08-.06s.05.02.1.05l.33.28s.05.04.05.08c0,.05-.05.06-.08.06h-1.95v1.01h1.12l.19-.17s.06-.05.08-.05.04.02.07.04l.29.22s.05.05.05.09c0,.06-.02.08-.23.23-.06.3-.19.94-.59,1.56.51.54,1.14.65,1.36.68v.03c-.18.07-.39.15-.59.46-.38-.22-.74-.5-1-.86-.38.47-.89.77-1.47.93l-.02-.04Zm.97-2.99c.04.19.17.9.49,1.45.25-.51.36-1.18.41-1.45h-.9Z"/>
        <path class="cls-2" d="m9.84,2.67c.09.03.12.05.12.09,0,.07-.06.1-.17.15.03,1.05-.56,1.97-2.08,2.04v-.03c.94-.37,1.6-.82,1.6-1.92,0-.23-.04-.38-.06-.5l.58.17Zm1.73-.42l.21-.21s.05-.05.08-.05c.03,0,.08.04.09.05l.41.33s.06.06.06.1c0,.13-.32.12-.44.12,0,0-.4.28-.55.35l-.03-.02c.03-.06.16-.42.21-.55h-2.97c.03.38-.17.76-.48.76-.2,0-.26-.18-.26-.28,0-.12.02-.14.24-.36.29-.26.33-.46.36-.6h.03c.05.17.07.25.09.35h2.95Zm-.06-1.36l.21-.26c.04-.05.05-.06.08-.06s.03,0,.1.05l.34.26s.05.04.05.08c0,.05-.04.06-.08.06h-1.9v.56h.9l.19-.25c.04-.06.06-.06.08-.06s.03,0,.1.05l.33.25s.05.04.05.08c0,.05-.04.06-.08.06h-2.94c-.32,0-.43,0-.56.03l-.08-.19c.32.03.68.03.74.03h.85v-.56h-1.25c-.32,0-.43.01-.56.03l-.09-.19c.32.03.68.03.74.03h1.15c-.01-.45-.03-.55-.09-.72l.63.18s.08.03.08.08c0,.09-.13.15-.18.17,0,.07,0,.11,0,.29h1.2Zm-.59,1.75s.12.04.12.1c0,.05-.05.09-.17.16-.02.24-.04.56-.04,1.08,0,.33,0,.38.03.43.03.06.12.06.22.06.66,0,.73,0,.83-.33.05-.15.06-.21.14-.58h.04c.08.66.09.73.18.79.14.1.16.11.16.18s-.08.26-.35.33c-.14.03-.94.03-1.15.03-.56,0-.56-.42-.56-.61,0-.22,0-1.19,0-1.41,0-.25-.03-.31-.06-.38l.6.16Z"/>
        <path class="cls-2" d="m14.8,1.4h-.68c0,.09,0,.83,0,.87.11-.04.6-.23.7-.28l.02.05c-.18.13-.39.29-.71.49,0,.12.02.72.02.79,0,.11.01.72.01.8,0,.59-.19.71-.61.83-.08-.23-.22-.49-.46-.59v-.04c.08.02.31.06.45.06.16,0,.16-.05.17-.12.01-.1.01-.76,0-1.45-.15.1-.43.29-.44.3-.05.12-.05.14-.08.14-.03,0-.06-.04-.08-.06l-.36-.52c.06,0,.09.01.15.01.15,0,.22-.03.81-.25,0-.17,0-.89-.01-1.04h-.11c-.32,0-.43.02-.56.04l-.08-.19c.31.03.66.03.75.03-.03-.77-.04-.9-.11-1.11l.6.18s.09.05.09.09c0,.06-.11.11-.15.13,0,.06,0,.48,0,.71h.13l.16-.23s.06-.06.08-.06.07.03.09.05l.24.23s.05.05.05.08c0,.05-.05.05-.08.05Zm2.79,1.23h-1.44v.73h.35l.2-.24c.05-.06.05-.07.08-.07.04,0,.09.05.1.06l.27.24s.05.05.05.08c0,.05-.04.05-.08.05h-.98v.84c.18.04.38.05.58.05.46,0,.78-.07.9-.09l.02.03c-.17.17-.25.32-.3.56-.47-.01-1.32-.03-1.76-.44-.37-.34-.45-.63-.48-.75-.19.42-.49.91-.98,1.21l-.02-.03c.45-.48.74-1.55.74-2.04l.5.24s.09.05.09.1c0,.04-.02.06-.17.11-.05.13-.07.19-.1.26.08.23.25.45.55.62v-1.54h-.58c-.32,0-.43.02-.56.04l-.08-.19c.31.03.68.03.74.03h1.76l.2-.24s.05-.07.08-.07c.03,0,.08.04.1.06l.26.24s.05.05.05.08c0,.05-.05.05-.08.05Zm-.57-1.92s-.11.08-.12.1c0,.2.02,1.1.02,1.28,0,.15-.1.23-.25.23-.18,0-.18-.14-.17-.26h-.98c0,.07.02.29-.28.29-.15,0-.15-.11-.15-.17,0-.2.01-1.1.01-1.28,0-.32,0-.37-.02-.59l.46.19h.94l.12-.12s.06-.06.08-.06.05.02.09.06l.23.19s.06.05.06.09c0,.03-.02.05-.04.06Zm-.52-.09h-.99v.57h.99v-.57Zm0,.69h-.99v.62h.99v-.62Z"/>
        <path class="cls-2" d="m19.29,2.8c0,.17,0,1.67,0,1.71-.06.42-.57.46-.58.46-.02-.07-.07-.18-.1-.25-.05-.1-.26-.33-.4-.36v-.03c.1.02.42.05.53.05.08,0,.17,0,.17-.16v-1.18c-.13.09-.4.26-.41.26,0,.04-.03.16-.09.16-.03,0-.05-.02-.06-.04l-.36-.56c.25.02.3.03.92-.2v-1.17h-.14c-.32,0-.44.02-.57.04l-.08-.19c.3.03.62.03.79.03v-.63c0-.18-.04-.36-.12-.51l.62.19s.07.06.07.09c0,.02,0,.04-.05.08-.03.03-.06.06-.11.11,0,.05,0,.64,0,.67h.01l.13-.2c.05-.08.07-.08.09-.08.04,0,.09.05.09.06l.19.21s.05.06.05.08c0,.05-.04.06-.08.06h-.49v1.03c.27-.1.53-.21.74-.33l.02.04c-.22.22-.5.4-.76.57Zm3.35,1.04c-.18.8-.37.89-.54.99-.12.06-.3.13-.5.12-.08-.33-.37-.6-.58-.68l.02-.03c.06.02.56.18.77.18s.25-.08.31-.23c.03-.07.1-.4.12-.47h-.57c-.1.31-.12.36-.29.36-.16,0-.22-.11-.22-.18,0,0,.18-.5.21-.6h-.44c-.2.92-.47,1.31-1.5,1.71v-.04c.77-.58,1.01-1.17,1.06-1.67h-.2c-.32,0-.44.02-.57.04l-.08-.19c.32.03.68.03.74.03h.91l.18-.19s.05-.05.08-.05c.03,0,.09.05.1.06l.23.17s.04.05.04.08c0,.06-.1.13-.18.19-.02.04-.02.06-.05.16h.45l.21-.18s.05-.05.06-.05.06.04.08.05l.25.19s.04.04.04.08c0,.06-.02.07-.15.14Zm.2-1.05h-2.32s0,.08-.02.13c-.04.08-.15.13-.23.13-.14,0-.14-.13-.14-.2,0-.03.03-.76.03-.78,0-.07,0-.35,0-.45-.24.3-.43.48-.61.6l-.02-.02c.61-.96.79-1.43.88-1.79.01-.05.02-.12.01-.22l.5.26s.04.06.04.07c0,.05-.02.06-.18.13-.04.05-.06.08-.24.38h.66c.18-.38.2-.6.18-.82l.53.29s.05.03.05.07c0,.06-.07.08-.22.13-.06.05-.34.29-.41.34h.77l.15-.23s.05-.08.09-.08c.03,0,.07.03.09.05l.27.25s.05.05.05.08c0,.06-.05.06-.08.06h-1.13v.39h.45l.11-.17c.04-.06.06-.07.08-.07.03,0,.04.01.1.06l.22.17s.05.05.05.08c0,.06-.05.06-.08.06h-.93v.4h.42l.12-.17c.05-.06.06-.07.09-.07s.05.02.09.06l.22.18s.05.04.05.08c0,.05-.05.06-.08.06h-.91v.46h.74l.13-.2s.05-.08.09-.08c.03,0,.08.04.1.06l.26.2s.06.06.06.09c0,.05-.05.05-.08.05Zm-1.69-1.63h-.63v.39h.63v-.39Zm0,.52h-.63v.4h.63v-.4Zm0,.52h-.63v.46h.63v-.46Z"/>
        <path class="cls-2" d="m25.35,5.11c-.65-.42-1.25-1.35-1.25-2.51s.6-2.09,1.25-2.51l.05.07c-.54.5-.94,1.45-.94,2.44s.39,1.94.94,2.44l-.05.07Z"/>
        <path class="cls-2" d="m27.77.73s-.12.04-.16.05c-.09.13-.28.42-.41.64l.08.05s.06.04.06.08c0,.06-.05.1-.17.2-.01.25-.02.6-.02,1.15,0,.35,0,.93.03,1.63,0,.03,0,.15,0,.17,0,.3-.31.32-.33.32-.05,0-.19-.04-.19-.19,0-.13.03-.33.04-.46.02-.36.05-1.96.06-2.29-.54.76-.74.89-.97,1.04l-.02-.02c.56-.72,1.07-1.88,1.22-2.24.17-.41.16-.47.17-.65l.58.36s.06.05.06.07c0,.03-.02.07-.05.08Zm2.8,1.06l-1.7.19c.03.54.09,1.08.35,1.64.17.37.5.73.63.73.09,0,.15-.09.2-.17.13-.21.32-.59.38-.72h.04c0,.06-.01.1-.07.47-.03.17-.03.33-.03.48,0,.09,0,.1.1.23.02.02.04.05.04.11,0,.13-.15.21-.32.21-.4,0-.8-.34-1.04-.67-.24-.34-.56-.86-.67-2.26l-.45.05c-.3.03-.41.06-.56.1l-.1-.18c.14,0,.31,0,.74-.05l.36-.04c-.02-.2-.04-1.08-.05-1.26-.02-.26-.05-.35-.07-.4l.61.16s.08.03.08.08c0,.03-.03.07-.06.09-.03.02-.06.05-.09.07-.03.26-.03.56-.03.67,0,.16,0,.37.02.56l.87-.09.23-.36s.05-.07.08-.07c.03,0,.06.02.09.04l.44.27s.06.05.06.08c0,.04-.03.05-.07.06Zm-.86-.43c-.12,0-.12-.02-.35-.35-.11-.17-.17-.25-.3-.38v-.04c.37.03.87.16.87.54,0,.11-.07.22-.22.22Z"/>
        <path class="cls-2" d="m32.41.89v1.28h.03l.19-.25s.06-.06.08-.06c.03,0,.08.04.09.05l.27.25s.05.05.05.08c0,.06-.05.06-.08.06h-.64v1.11c.11-.04.65-.25.77-.3l.02.04c-.29.24-.69.53-1.54,1.04-.04.16-.08.19-.12.19-.05,0-.08-.05-.1-.09l-.29-.56c.3.02.59-.08.84-.17v-1.26c-.37,0-.47.02-.58.04l-.08-.19c.2.02.24.02.66.03V.89h-.09c-.36,0-.46.02-.56.04l-.08-.19c.24.02.49.03.74.03h.45l.18-.2c.05-.06.05-.07.08-.07.02,0,.07.04.1.06l.26.2s.05.05.05.07c0,.06-.05.06-.08.06h-.62Zm2.47,2.65l.23-.24s.06-.07.09-.07c.02,0,.06.03.09.05l.3.25s.05.05.05.08c0,.05-.05.05-.08.05h-1.04v.95h.61l.23-.29c.04-.05.05-.06.08-.06s.05.01.1.05l.34.29s.05.05.05.08c0,.05-.04.06-.08.06h-2.84c-.32,0-.43.01-.56.04l-.08-.19c.32.03.68.03.74.03h1v-.95h-.29c-.32,0-.43.02-.57.04l-.08-.19c.32.03.69.03.74.03h.2v-.85h-.51c0,.15,0,.35-.26.35-.17,0-.18-.12-.18-.18,0-.05.01-.27.01-.32.01-.3.01-.88.01-1.19,0-.67-.01-.81-.07-1l.53.26h1.36l.16-.18s.05-.05.07-.05c.03,0,.05.02.09.05l.27.22s.03.04.03.07c0,.07-.07.12-.16.19,0,.17,0,.44,0,.85,0,.14.03.78.03.91,0,.05,0,.12-.06.19-.06.06-.15.09-.23.09-.19,0-.18-.15-.18-.26h-.5v.85h.36Zm-1.29-2.8v.83h.51v-.83h-.51Zm0,.96v.87h.51v-.87h-.51Zm1.44-.12v-.83h-.51v.83h.51Zm0,.99v-.87h-.51v.87h.51Z"/>
        <path class="cls-2" d="m36.45,5.11l-.05-.07c.54-.5.94-1.45.94-2.44s-.39-1.94-.94-2.44l.05-.07c.65.42,1.25,1.35,1.25,2.51s-.6,2.09-1.25,2.51Z"/>
        <path class="cls-2" d="m40.3,2.6l-1.3-2.4.19-.11,1.36,2.51-1.36,2.51-.19-.11,1.3-2.4Z"/>
      </g>
      <g>
        <g>
          <path class="cls-2" d="m44.37,22.75h-10.88v-.79h9.44v-1.47h-9.44v-.87h9.44v-1.47h-9.44v-.77h9.56v-1.56h-11.42v6.92h-2.48v1.56h2.2v4.07c-.52.03-1.01.05-1.46.06v1.66c2.33-.04,5.46-.38,7.54-1.26v-1.67c-1.16.52-2.7.85-4.22,1.04v-3.89h2.87c1.17,3.24,4.61,5.41,8.29,5.91v-1.67c-1.27-.18-2.61-.66-3.74-1.39.72-.47,2-1.5,2.6-2.29h-2.27c-.38.42-1.04,1.05-1.53,1.34-.57-.55-1.02-1.19-1.29-1.9h6.25v-1.56Z"/>
          <path class="cls-2" d="m54.2,17.66h-2.34c-1.55,2.55-4.28,4.32-6.6,5.12v1.92c.73-.23,1.52-.57,2.31-.99v6.3h10.93v-6.3c.79.42,1.58.76,2.31.99v-1.92c-2.32-.8-5.06-2.57-6.6-5.12Zm2.48,10.73h-7.29v-3.55h7.29v3.55Zm-8.29-5.16c1.84-1.13,3.61-2.69,4.64-4.39,1.03,1.7,2.8,3.26,4.64,4.39h-9.29Z"/>
          <path class="cls-2" d="m51.53,15.63h-2.13c-.98,1.16-2.32,1.82-3.66,2.21v1.86c2.58-.72,5.05-2.81,5.79-4.07Z"/>
          <path class="cls-2" d="m60.32,19.69v-1.86c-1.34-.38-2.68-1.05-3.66-2.21h-2.13c.74,1.26,3.21,3.35,5.79,4.07Z"/>
          <polygon class="cls-2" points="69.05 28.25 69.05 17.58 74.71 17.58 74.71 15.83 61.48 15.83 61.48 17.58 67.14 17.58 67.14 28.25 61.03 28.25 61.03 30 75.16 30 75.16 28.25 69.05 28.25"/>
          <path class="cls-2" d="m141.33,30l-4.68-6.8c1.25-2.25,1.81-4.8,1.9-7.37h-10.53v1.76h8.41c-.75,5.56-3.92,9.09-9.78,10.55v1.86c4.21-.93,7.07-2.77,8.93-5.18l3.56,5.17h2.19Z"/>
          <path class="cls-2" d="m84,15.83v1.75h12.35c-.62,3.21-2.81,4.23-4.9,4.46.04-.44.06-.9.06-1.4v-1.18h-1.99v1.18c0,6.05-2.98,7.16-5.04,7.64v1.85c2.04-.46,5.63-1.45,6.71-6.32v.06c4.17-.28,7.25-2.87,7.33-8.04h-14.52Z"/>
          <rect class="cls-2" x="121.02" y="15.45" width="1.44" height="3.82"/>
          <rect class="cls-2" x="123.04" y="15.45" width="1.44" height="3.82"/>
          <path class="cls-2" d="m153.45,22.81c-1.23-.54-3.31-1.35-8.13-2.47v-4.7h-2.01v14.37h2.01v-7.84c5.44,1.29,7.1,2.15,8.13,2.59v-1.94Z"/>
          <rect class="cls-2" x="98.01" y="21.82" width="10.67" height="1.77"/>
          <path class="cls-2" d="m116.73,15.97h0c-.14-.21-.38-.35-.65-.35s-.51.13-.65.34h0s-5.75,8.39-5.75,8.39h0s2.3,0,2.3,0l4.09-5.97,7.8,11.6h2.29l-9.42-14.03Z"/>
        </g>
        <g>
          <rect class="cls-5" x=".7" y="12.24" width="6.8" height="17.87"/>
          <path class="cls-4" d="m14.39,21.18c0,1.87-1.51,3.38-3.38,3.38s-3.38-1.51-3.38-3.38,1.51-3.38,3.38-3.38,3.38,1.52,3.38,3.38Z"/>
          <polygon class="cls-3" points="22.14 30.11 12.25 30.11 17.19 11.56 22.14 30.11"/>
          <g>
            <path class="cls-2" d="m21.4,34.14c-.11-.56-.59-.89-1.46-.89s-1.35.33-1.46.89c-.03.14-.05.33-.05.53v4.5c0,.2.02.39.05.53.11.56.59.89,1.46.89s1.36-.33,1.46-.89c.03-.14.05-.33.05-.53v-4.5c0-.2-.02-.39-.05-.53Zm-.78,5.5c0,.35-.23.52-.69.52s-.69-.17-.69-.52v-5.44c0-.34.23-.52.69-.52s.69.17.69.52v5.44Z"/>
            <polygon class="cls-2" points="3.31 33.34 3.31 36.57 1.61 36.57 1.61 33.34 .78 33.34 .78 40.5 1.61 40.5 1.61 37.04 3.31 37.04 3.31 40.5 4.14 40.5 4.14 33.34 3.31 33.34"/>
            <polygon class="cls-2" points="14.4 33.84 14.4 33.34 11.9 33.34 11.9 40.5 14.4 40.5 14.4 40 12.72 40 12.72 37.02 14.25 37.02 14.25 36.55 12.72 36.55 12.72 33.84 14.4 33.84"/>
            <g>
              <rect class="cls-2" x="15" y="33.34" width=".82" height="7.16"/>
              <polygon class="cls-2" points="16.55 36.23 17.93 33.34 17.41 33.34 15.83 36.64 17.49 40.5 18.38 40.5 16.55 36.23"/>
            </g>
            <path class="cls-2" d="m6.83,33.34h-1l-1.43,7.16h.53l.4-1.99h1.7l.4,1.99h.83l-1.43-7.16Zm-1.41,4.7l.76-3.79.76,3.79h-1.51Z"/>
            <path class="cls-2" d="m8.81,36.04c-.2-.29-.34-.73-.34-1.13,0-.2,0-.48.02-.64.06-.67.67-1.02,1.42-1.02.89,0,1.41.44,1.41,1.08v.95h-.84v-1.09c0-.3-.18-.49-.52-.49-.44,0-.58.16-.61.45-.02.19-.02.5-.02.68,0,.41.15.65.3.87.25.37.98,1.2,1.36,1.69.29.38.38.61.43,1.14.02.22.02.76,0,1.02-.07.69-.76,1.04-1.49,1.04-.87,0-1.45-.43-1.45-.96v-1.24h.84v1.26c0,.39.31.48.65.48.43,0,.58-.15.6-.45.03-.29.02-.73,0-.95-.01-.38-.06-.54-.29-.85-.26-.34-1.21-1.47-1.46-1.84Z"/>
          </g>
          <rect class="cls-1" x=".7" y="12.24" width="20.76" height="28.26"/>
        </g>
      </g>
      <rect class="cls-1" width="153.82" height="41.14"/>
    </g>
  </g>
</svg>