<?xml version="1.0" encoding="utf-8"?>
<!-- Generator: Adobe Illustrator 27.9.0, SVG Export Plug-In . SVG Version: 6.00 Build 0)  -->
<svg version="1.1" id="_レイヤー_2" xmlns="http://www.w3.org/2000/svg" xmlns:xlink="http://www.w3.org/1999/xlink" x="0px"
	 y="0px" viewBox="0 0 120.6 52.7" style="enable-background:new 0 0 120.6 52.7;" xml:space="preserve">
<style type="text/css">
	.st0{fill:#143157;}
	.st1{enable-background:new    ;}
</style>
<g id="layout">
	<g>
		<rect x="0.1" y="38.2" class="st0" width="120.5" height="0.3"/>
		<g>
			<path class="st0" d="M71.1,14.9c-1,3.3-9.5,4.5-13,3.7c-2-0.4-3.1-1-3-1.6c0.1-0.6,1.6-1.3,7.6-1.7L71.1,14.9L71.1,14.9z
				 M45.7,15c0.1,0.4,0.2,0.6,0.5,0.6c0.3,0.1,0.6-0.2,1-0.7c1.3-1.5,5.7-5.2,7.1-6.5c8.4-7.2,13.2-8.1,15.3-7.6
				c1.2,0.3,2.1,1.3,1.8,2.7c-1.2,3.9-8.7,3.1-9.1,4.8c-0.2,1,2.3,1.4,4.7,2.1c2.3,0.6,4.5,1.6,4.2,3.8l-11.8,0.4
				c-4.5,0.1-5.7,0.9-5.9,1.8c-0.2,1.1,1.4,2.3,4.3,2.9c2.7,0.6,8.4,0.3,13-2.3c1.4-0.7,2.1-1.5,2.6-2.1l1.2,0
				c0.3,0,0.5-0.1,0.5-0.3c0.1-0.2,0-0.4-0.2-0.4h-0.2l-0.9,0c0.1-0.2,0.2-0.5,0.3-0.9c0.5-2.4-1.8-4-6-4.9
				c-1.4-0.3-2.2-0.5-2.2-0.7c0.1-0.4,6.4-0.8,7.3-4.3c0.3-1.3-0.4-2.8-2.5-3.3c-4.2-0.9-10.5,2.4-13.4,4l-0.1,0
				c-19.8-2.7-1.5,0.9-3.9,2.3c-2.7,1.9-7.9,6.3-8,6.7c0,0.2,0,0.4,0.1,0.6L45.7,15L45.7,15z"/>
			<g>
				<path class="st0" d="M3.2,25.1c0-0.1,0.1-0.1,0.2-0.2c0.3-0.1,0.7-0.1,0.9-0.1c1.8,0,2.5,1.3,2.5,2.5c0,0.6-0.3,1.1-0.7,1.5
					c-0.4,0.4-0.7,0.4-1.7,0.4c-0.7,0-1,0-1.2-0.1c-0.1,0-0.1-0.1-0.1-0.2V25.1z M1.6,31.2c0,1.4,0,2.5-0.1,3.2
					c-0.1,0.4-0.2,0.7-0.6,0.8c-0.2,0-0.4,0.1-0.6,0.1c-0.1,0-0.2,0-0.2,0.1c0,0.1,0.1,0.1,0.3,0.1c0.6,0,1.8,0,1.9,0
					c0.2,0,2.1,0.1,2.5,0.1c3.2,0,4.8-1.6,4.8-3.2c0-1.7-1.9-2.7-3.3-3.1c0.9-0.7,1.8-1.4,1.8-2.6c0-0.7-0.7-2.2-3.8-2.2
					c-0.9,0-1.6,0-2,0c-0.1,0-1.3,0-2.1,0c-0.2,0-0.3,0-0.3,0.1c0,0.1,0.1,0.1,0.2,0.1c0.2,0,0.5,0,0.6,0c0.6,0.1,0.8,0.3,0.8,0.8
					c0,0.5,0,0.9,0,3.1L1.6,31.2L1.6,31.2z M3.2,29.7c0-0.1,0-0.1,0.1-0.1c0.3,0,1.2,0,1.5,0c0.4,0,0.9,0.1,1.6,0.4
					c1.4,0.8,1.8,2,1.8,2.9c0,1.6-1.6,2.1-2.7,2.1c-0.3,0-1.2,0-1.7-0.2c-0.6-0.2-0.6-0.4-0.7-1.1c0-0.2,0-2,0-3.1L3.2,29.7
					L3.2,29.7z"/>
				<path class="st0" d="M13.9,25.1c0-0.1,0.1-0.1,0.1-0.2c0.2,0,0.7-0.1,1.3-0.1c2,0,3.3,1.1,3.3,2.9c0,1.1-0.5,1.9-1.1,2.2
					c-0.4,0.2-1,0.3-1.4,0.3c-0.8,0-1.7-0.1-2-0.2c-0.1,0-0.1-0.1-0.1-0.2V25.1z M12.4,31.2c0,1.4,0,2.5-0.1,3.2
					c-0.1,0.4-0.2,0.7-0.6,0.8c-0.2,0-0.4,0.1-0.6,0.1c-0.1,0-0.1,0-0.1,0.1c0,0.1,0.1,0.1,0.3,0.1c0.6,0,1.8,0,1.8,0
					c0.1,0,1.3,0,2.3,0c0.2,0,0.3,0,0.3-0.1c0,0,0-0.1-0.1-0.1c-0.2,0-0.6,0-0.9-0.1c-0.6-0.1-0.7-0.4-0.7-0.8
					c-0.1-0.6-0.1-1.8-0.1-3.2v-0.4c0-0.1,0-0.1,0.1-0.1l2.3,0c0.1,0,0.2,0,0.2,0.1c0.4,0.4,1.3,1.4,2,2.2c1.1,1.1,1.7,1.8,2.5,2.1
					c0.5,0.2,1,0.3,2,0.3h1.3c0.3,0,0.5,0,0.5-0.1c0,0-0.1-0.1-0.2-0.1c-0.1,0-0.4,0-0.7,0c-0.5-0.1-1.3-0.2-2.3-1
					c-1.1-0.9-2.4-2.2-3.9-3.7c1.7-1.2,2.3-2.3,2.3-3.4c0-1-0.8-1.7-1.3-2c-1-0.5-2.3-0.6-3.4-0.6c-0.6,0-2,0-2.2,0
					c-0.1,0-1.3,0-2.1,0c-0.2,0-0.3,0-0.3,0.1c0,0.1,0.1,0.1,0.1,0.1c0.2,0,0.5,0,0.6,0c0.6,0.1,0.8,0.3,0.8,0.8c0,0.5,0,0.9,0,3.1
					L12.4,31.2L12.4,31.2z"/>
				<path class="st0" d="M28.1,30.6c-0.1,0-0.1,0-0.1-0.1l1.7-3.9c0.1-0.2,0.2-0.2,0.3,0l1.8,3.9c0,0.1,0,0.1-0.1,0.1H28.1
					L28.1,30.6z M25.5,33.8c-0.3,0.7-0.7,1.3-1.6,1.4c-0.1,0-0.4,0-0.5,0c-0.1,0-0.2,0-0.2,0.1c0,0.1,0.1,0.1,0.4,0.1
					c0.9,0,1.9,0,2.1,0s1,0,1.5,0c0.2,0,0.3,0,0.3-0.1c0-0.1-0.1-0.1-0.2-0.1H27c-0.3,0-0.7-0.1-0.7-0.4c0-0.3,0.1-0.6,0.3-1
					l1.1-2.6c0-0.1,0.1-0.1,0.2-0.1H32c0.1,0,0.1,0,0.2,0.1l1.8,3.6c0.1,0.2,0,0.4-0.1,0.4c-0.1,0-0.1,0-0.1,0.1
					c0,0.1,0.2,0.1,0.6,0.1c1.3,0,2.7,0,3,0c0.2,0,0.4,0,0.4-0.1c0-0.1-0.1-0.1-0.2-0.1c-0.2,0-0.5,0-0.8-0.1
					c-0.4-0.1-0.9-0.3-1.6-1.6c-1.2-2.2-4.1-8.2-4.4-8.7c-0.2-0.5-0.3-0.5-0.4-0.5s-0.2,0.1-0.4,0.6L25.5,33.8L25.5,33.8z"/>
				<path class="st0" d="M96.7,25.1c0-0.1,0.1-0.1,0.2-0.2c0.2,0,0.7-0.1,1.3-0.1c2,0,3.3,1.1,3.3,2.9c0,1.1-0.5,1.9-1.2,2.2
					c-0.4,0.2-1,0.3-1.4,0.3c-0.8,0-1.7-0.1-2-0.2c-0.1,0-0.1-0.1-0.1-0.2V25.1z M95.2,31.2c0,1.4,0,2.5-0.1,3.2
					c-0.1,0.4-0.2,0.7-0.6,0.8c-0.2,0-0.4,0.1-0.6,0.1c-0.1,0-0.2,0-0.2,0.1c0,0.1,0.1,0.1,0.3,0.1c0.6,0,1.8,0,1.8,0
					c0.1,0,1.3,0,2.3,0c0.2,0,0.3,0,0.3-0.1c0,0,0-0.1-0.2-0.1c-0.2,0-0.6,0-0.8-0.1c-0.6-0.1-0.7-0.4-0.7-0.8
					c-0.1-0.6-0.1-1.8-0.1-3.2v-0.4c0-0.1,0-0.1,0.1-0.1l2.3,0c0.1,0,0.2,0,0.2,0.1c0.4,0.4,1.3,1.4,2.1,2.2
					c1.1,1.1,1.7,1.8,2.6,2.1c0.5,0.2,1,0.3,2,0.3h1.3c0.3,0,0.4,0,0.4-0.1c0,0-0.1-0.1-0.2-0.1c-0.1,0-0.4,0-0.7,0
					c-0.5-0.1-1.3-0.2-2.3-1c-1.1-0.9-2.4-2.2-3.9-3.7c1.7-1.2,2.3-2.3,2.3-3.4c0-1-0.8-1.7-1.3-2c-1-0.5-2.3-0.6-3.4-0.6
					c-0.6,0-2,0-2.2,0c-0.1,0-1.3,0-2.1,0c-0.2,0-0.3,0-0.3,0.1c0,0.1,0.1,0.1,0.2,0.1c0.2,0,0.5,0,0.6,0c0.6,0.1,0.8,0.3,0.8,0.8
					c0,0.5,0,0.9,0,3.1L95.2,31.2L95.2,31.2z"/>
				<path class="st0" d="M111,30.6c-0.1,0-0.1,0-0.1-0.1l1.7-3.9c0.1-0.2,0.2-0.2,0.3,0l1.8,3.9c0,0.1,0,0.1-0.1,0.1H111L111,30.6z
					 M108.3,33.8c-0.3,0.7-0.7,1.3-1.6,1.4c-0.2,0-0.4,0-0.6,0c-0.1,0-0.2,0-0.2,0.1c0,0.1,0.1,0.1,0.3,0.1c0.9,0,1.9,0,2.1,0
					s1,0,1.5,0c0.2,0,0.3,0,0.3-0.1c0-0.1-0.1-0.1-0.2-0.1h-0.2c-0.3,0-0.7-0.1-0.7-0.4c0-0.3,0.1-0.6,0.3-1l1.1-2.6
					c0-0.1,0.1-0.1,0.2-0.1h4.1c0.1,0,0.1,0,0.2,0.1l1.8,3.6c0.1,0.2,0,0.4-0.1,0.4c-0.1,0-0.1,0-0.1,0.1c0,0.1,0.2,0.1,0.6,0.1
					c1.3,0,2.7,0,3,0c0.2,0,0.4,0,0.4-0.1c0-0.1-0.1-0.1-0.2-0.1c-0.2,0-0.5,0-0.8-0.1c-0.4-0.1-0.9-0.3-1.6-1.6
					c-1.2-2.2-4.1-8.2-4.4-8.7c-0.2-0.5-0.3-0.5-0.4-0.5s-0.2,0.1-0.4,0.6L108.3,33.8L108.3,33.8z"/>
				<path class="st0" d="M40.5,33.4c0,1.2,0.2,1.6,0.7,1.7c0.4,0.1,0.8,0.1,1,0.1c0.1,0,0.2,0,0.2,0.1c0,0.1-0.1,0.1-0.3,0.1
					c-1.1,0-1.8,0-2,0s-1,0-1.8,0c-0.2,0-0.3,0-0.3-0.1c0-0.1,0.1-0.1,0.2-0.1c0.2,0,0.5,0,0.8-0.1c0.5-0.1,0.6-0.5,0.6-1.8l0-8.3
					c0-0.6,0.1-0.7,0.2-0.7s0.5,0.3,0.7,0.5c0.3,0.2,3.1,2.6,6,5c1.9,1.5,3.9,3.3,4.5,3.8l-0.2-7.4c0-0.9-0.2-1.3-0.7-1.4
					c-0.3-0.1-0.8-0.1-0.9-0.1c-0.1,0-0.2,0-0.2-0.1c0-0.1,0.2-0.1,0.4-0.1c0.8,0,1.8,0,2,0s0.8,0,1.6,0c0.2,0,0.3,0,0.3,0.1
					c0,0.1-0.1,0.1-0.2,0.1c-0.1,0-0.2,0-0.5,0c-0.6,0.1-0.7,0.4-0.7,1.3l0,8.5c0,1,0,1-0.2,1c-0.2,0-0.4-0.2-1.4-0.9
					c-0.2-0.1-2.9-2.3-4.9-3.9c-2.2-1.8-4.3-3.6-4.9-4.2L40.5,33.4L40.5,33.4z"/>
				<path class="st0" d="M55.8,34c-1.8-1.3-2.3-2.9-2.3-4.3c0-1,0.4-2.7,2.1-4c1.1-0.9,2.8-1.5,5.8-1.5c0.8,0,1.8,0,2.7,0.2
					c0.7,0.1,1.3,0.2,1.9,0.2c0.2,0,0.2,0.1,0.2,0.2c0,0.1-0.1,0.3-0.1,0.8c0,0.5,0,1.3-0.1,1.5c0,0.2-0.1,0.3-0.2,0.3
					c-0.1,0-0.2-0.1-0.2-0.3c0-0.6-0.3-1.2-0.8-1.5c-0.7-0.4-2.1-0.8-3.8-0.8c-2.5,0-3.7,0.6-4.3,1.1c-1.4,1-1.7,2.3-1.7,3.8
					c0,2.8,2.8,5.3,6.8,5.3c1.4,0,2.5-0.1,3.3-0.7c0.4-0.3,0.6-1,0.7-1.2c0-0.2,0.1-0.2,0.2-0.2c0.1,0,0.1,0.1,0.1,0.2
					c0,0.1-0.2,1.4-0.4,1.9c-0.1,0.3-0.2,0.3-0.5,0.4c-0.8,0.2-2.2,0.3-3.4,0.3C59.2,35.6,57.3,35.1,55.8,34"/>
				<path class="st0" d="M80.7,31.2c0,1.4,0,2.5,0.1,3.2c0.1,0.4,0.2,0.7,0.7,0.8c0.3,0,0.7,0.1,0.8,0.1c0.1,0,0.2,0,0.2,0.1
					c0,0.1-0.1,0.1-0.3,0.1c-1,0-2.2,0-2.3,0s-1.3,0-1.8,0c-0.2,0-0.3,0-0.3-0.1c0,0,0-0.1,0.2-0.1c0.2,0,0.4,0,0.6-0.1
					c0.4-0.1,0.5-0.4,0.6-0.8c0.1-0.6,0.1-1.8,0.1-3.2v-1.5c0-0.1-0.1-0.1-0.1-0.1h-8c-0.1,0-0.1,0-0.1,0.1v1.5c0,1.4,0,2.5,0.1,3.2
					c0.1,0.4,0.2,0.7,0.7,0.8c0.3,0,0.7,0.1,0.8,0.1c0.1,0,0.2,0,0.2,0.1c0,0.1-0.1,0.1-0.3,0.1c-1,0-2.2,0-2.3,0s-1.3,0-1.8,0
					c-0.2,0-0.3,0-0.3-0.1c0,0,0-0.1,0.2-0.1c0.2,0,0.4,0,0.6-0.1c0.4-0.1,0.5-0.4,0.6-0.8c0.1-0.6,0.1-1.8,0.1-3.2v-2.6
					c0-2.3,0-2.7,0-3.1c0-0.5-0.2-0.7-0.8-0.8c-0.2,0-0.5,0-0.6,0c-0.1,0-0.2,0-0.2-0.1c0-0.1,0.1-0.1,0.3-0.1c0.8,0,2,0,2.1,0
					s1.3,0,1.8,0c0.2,0,0.3,0,0.3,0.1c0,0.1-0.1,0.1-0.2,0.1c-0.1,0-0.2,0-0.5,0C71.2,24.7,71,25,71,25.5c0,0.5,0,0.9,0,3.1v0.3
					C71,29,71,29,71.1,29h8c0.1,0,0.1,0,0.1-0.1v-0.3c0-2.3,0-2.7,0-3.1c0-0.5-0.2-0.7-0.8-0.8c-0.2,0-0.5,0-0.6,0
					c-0.1,0-0.2,0-0.2-0.1c0-0.1,0.1-0.1,0.3-0.1c0.8,0,2,0,2.1,0s1.3,0,1.8,0c0.2,0,0.3,0,0.3,0.1c0,0.1-0.1,0.1-0.2,0.1
					c-0.1,0-0.2,0-0.5,0c-0.5,0.1-0.7,0.3-0.7,0.8c0,0.5,0,0.9,0,3.1L80.7,31.2L80.7,31.2z"/>
				<path class="st0" d="M85.4,28.6c0-2.3,0-2.7,0-3.1c0-0.5-0.2-0.7-0.8-0.8c-0.2,0-0.5,0-0.6,0c-0.1,0-0.2,0-0.2-0.1
					c0-0.1,0.1-0.1,0.3-0.1c0.8,0,2,0,2.1,0c0.1,0,3.9,0,4.3,0c0.4,0,0.7,0,0.8-0.1c0.1,0,0.2-0.1,0.3-0.1c0.1,0,0.1,0.1,0.1,0.1
					c0,0.1-0.1,0.3-0.2,0.7c0,0.1-0.1,0.8-0.1,1c0,0.1-0.1,0.2-0.1,0.2c-0.1,0-0.2-0.1-0.2-0.2c0-0.1,0-0.4-0.1-0.5
					c-0.1-0.2-0.3-0.4-1.3-0.5c-0.3,0-2.4,0-2.6,0C87,25,87,25,87,25.1v4c0,0.1,0,0.1,0.1,0.1c0.2,0,2.6,0,3,0
					c0.4,0,0.7-0.1,0.9-0.2c0.1-0.1,0.2-0.2,0.3-0.2c0.1,0,0.1,0,0.1,0.1s-0.1,0.3-0.2,0.8c0,0.3-0.1,0.8-0.1,0.9
					c0,0.1,0,0.3-0.1,0.3c-0.1,0-0.1-0.1-0.1-0.1c0-0.1,0-0.3-0.1-0.5c-0.1-0.2-0.2-0.5-1-0.5c-0.5,0-2.4-0.1-2.7-0.1
					c-0.1,0-0.1,0-0.1,0.1v1.3c0,0.5,0,2.2,0,2.5c0.1,1,0.3,1.2,2.2,1.2c0.5,0,1.3,0,1.8-0.2s0.7-0.5,0.8-1c0-0.2,0.1-0.2,0.2-0.2
					c0.1,0,0.1,0.1,0.1,0.2c0,0.1-0.2,1.1-0.2,1.4c-0.1,0.4-0.3,0.4-1,0.4c-2.8,0-4.1-0.1-4.7-0.1c-0.1,0-1.3,0-1.8,0
					c-0.2,0-0.3,0-0.3-0.1c0,0,0-0.1,0.2-0.1c0.2,0,0.4,0,0.6-0.1c0.4-0.1,0.5-0.4,0.5-0.8c0.1-0.6,0.1-1.8,0.1-3.2L85.4,28.6
					L85.4,28.6z"/>
			</g>
		</g>
		<g class="st1">
			<path class="st0" d="M17.9,49.7c3-1.4,4.2-3.8,4.6-5.8c0,0,0,0,0-0.1c0-0.1,0-0.1-0.1-0.1c-0.1,0-3.6,0.2-4.1,0.5
				c-0.1,0.1-0.2,0.1-0.4,0.1c-0.3,0-0.8-0.6-0.8-1c0-0.2,0.1-0.3,0.2-0.3l0,0c0.1,0.5,0.6,0.5,1,0.5c0.5,0,3.2-0.1,3.7-0.2
				c0.2,0,0.3-0.2,0.4-0.2c0.2,0,0.9,0.6,0.9,0.8c0,0.1-0.1,0.2-0.1,0.2c-0.1,0-0.1,0.1-0.1,0.2c-0.5,2-1.9,4.4-5.1,5.5L17.9,49.7z
				 M22.7,42.2c0.7,0.2,1.2,0.8,1.2,1.2c0,0.2-0.1,0.3-0.2,0.3c-0.1,0-0.2,0-0.3-0.3c-0.1-0.3-0.4-0.8-0.8-1.1L22.7,42.2z
				 M23.7,41.9c0.7,0.3,1.2,0.8,1.2,1.1c0,0.2-0.1,0.3-0.2,0.3c-0.1,0-0.2,0-0.3-0.3c-0.1-0.3-0.3-0.8-0.8-1.1L23.7,41.9z"/>
		</g>
		<g class="st1">
			<path class="st0" d="M26.9,49.8c2.4-0.9,3.9-2.3,4.5-4.4c0-0.1,0-0.1,0-0.2c0,0,0,0-0.1,0c-0.1,0-3.7,0.3-4.4,0.6
				c-0.1,0-0.2,0.1-0.4,0.1c-0.4,0-0.9-0.6-0.9-0.9c0-0.2,0.1-0.3,0.2-0.4h0.1c0.1,0.6,0.6,0.6,0.9,0.6c0.4,0,3.3-0.2,4.4-0.3
				c0.2,0,0.3-0.3,0.5-0.3c0.2,0,0.8,0.5,0.8,0.7c0,0.1-0.1,0.2-0.2,0.2c-0.1,0-0.2,0.1-0.3,0.2C31.2,48,29.7,49.3,27,50L26.9,49.8z
				 M26.8,42.7c0.1,0.2,0.5,0.3,1,0.3c0.4,0,1.6-0.1,2.2-0.2c0.3-0.1,0.5-0.1,0.6-0.3c0.5,0.1,1,0.2,1,0.4c0,0.2-0.3,0.3-0.6,0.3
				c-0.5,0-1.4,0.1-2.1,0.2c-0.4,0-0.8,0.1-1,0.1c-0.6,0-1-0.4-1-0.6C26.7,42.8,26.7,42.7,26.8,42.7L26.8,42.7z"/>
		</g>
		<g class="st1">
			<path class="st0" d="M33.8,43.1c1,0.1,2.6,0.7,2.6,1.5c0,0.2-0.1,0.4-0.4,0.4c-0.2,0-0.4-0.2-0.5-0.4c-0.3-0.4-1-1-1.8-1.3
				L33.8,43.1z M40.9,43.8c-1.1,2.5-3.2,4.3-5.4,5.4c-0.4,0.2-0.4,0.4-0.6,0.4c-0.3,0-1-0.5-1-1c0-0.1,0.1-0.3,0.2-0.4
				c0.1,0.2,0.3,0.5,0.6,0.5c0.7,0,4.3-1.8,6-5L40.9,43.8z"/>
		</g>
		<g class="st1">
			<path class="st0" d="M42.2,44.9c1.2,0.1,2.2,0.5,2.2,1.1c0,0.2-0.1,0.3-0.3,0.3c-0.2,0-0.3-0.2-0.6-0.5c-0.2-0.2-0.8-0.5-1.4-0.8
				L42.2,44.9z M49.5,44.2c-1.1,2.4-3.4,4.1-5.1,4.9c-0.2,0.1-0.4,0.2-0.4,0.3c-0.1,0.1-0.1,0.2-0.3,0.2c-0.3,0-1-0.6-1-0.9
				c0-0.2,0.1-0.4,0.2-0.4c0.1,0.4,0.3,0.5,0.6,0.5c0.1,0,0.3,0,0.4-0.1c1.7-0.7,4.1-2.4,5.4-4.6L49.5,44.2z M43.3,42.9
				c1.1,0.1,2.1,0.6,2.1,1.1c0,0.2-0.1,0.3-0.3,0.3c-0.2,0-0.3-0.3-0.5-0.5c-0.3-0.3-0.7-0.5-1.3-0.8L43.3,42.9z"/>
		</g>
		<g class="st1">
			<path class="st0" d="M59,48.6c0,0.2-0.1,0.2-0.3,0.2c-0.2,0-0.5-0.1-0.9-0.1c-0.4,0-0.9-0.1-1.3-0.1c-0.2,0-0.3,0-0.5,0
				c-1,0-2.3,0.1-3.5,0.3c-0.5,0.1-0.5,0.2-0.7,0.2c-0.3,0-0.8-0.5-0.8-0.9c0-0.2,0.1-0.4,0.2-0.4c0.2,0.5,0.6,0.6,1,0.6
				c0.3,0,2-0.1,2.4-0.1c0-0.7,0.1-1.6,0.1-2.3c0-1.2,0-1.4-0.3-1.6c-0.3,0-0.6,0.1-0.9,0.1c-0.4,0.1-0.4,0.1-0.7,0.1
				c-0.5,0-0.9-0.4-0.9-0.7c0-0.1,0.1-0.3,0.2-0.3c0.2,0.3,0.6,0.4,1.1,0.4c0.8,0,2-0.1,2.8-0.2c0.8-0.1,0.6-0.3,0.8-0.3
				c0.3,0,1.1,0.2,1.1,0.5c0,0.2-0.2,0.3-0.4,0.3c-0.1,0-0.9,0-1,0c-0.3,0-0.8,0-1.4,0.1c0.2,0.1,0.4,0.3,0.4,0.4
				c0,0.2-0.1,0.2-0.1,0.7c0,0.7-0.1,1.9-0.1,2.7c0.6,0,1.6-0.1,2.1-0.1c0.3,0,0.5-0.1,0.6-0.2C58.6,48.1,59,48.4,59,48.6z"/>
			<path class="st0" d="M60.7,49.8c2.4-0.9,3.9-2.3,4.5-4.4c0-0.1,0-0.1,0-0.2c0,0,0,0-0.1,0c-0.1,0-3.7,0.3-4.4,0.6
				c-0.1,0-0.2,0.1-0.4,0.1c-0.4,0-0.9-0.6-0.9-0.9c0-0.2,0.1-0.3,0.2-0.4h0.1c0.1,0.6,0.6,0.6,0.9,0.6c0.4,0,3.3-0.2,4.4-0.3
				c0.2,0,0.3-0.3,0.5-0.3c0.2,0,0.8,0.5,0.8,0.7c0,0.1-0.1,0.2-0.2,0.2c-0.1,0-0.2,0.1-0.3,0.2C65,48,63.5,49.3,60.8,50L60.7,49.8z
				 M60.6,42.7c0.1,0.2,0.5,0.3,1,0.3c0.4,0,1.6-0.1,2.2-0.2c0.3-0.1,0.5-0.1,0.6-0.3c0.5,0.1,1,0.2,1,0.4c0,0.2-0.3,0.3-0.6,0.3
				c-0.5,0-1.4,0.1-2.1,0.2c-0.4,0-0.8,0.1-1,0.1c-0.6,0-1-0.4-1-0.6C60.6,42.8,60.6,42.7,60.6,42.7L60.6,42.7z"/>
		</g>
		<g class="st1">
			<path class="st0" d="M68.9,42.4l1,0.1c0,0.1-0.1,0.2-0.4,0.2V45c0,1.8-0.2,4-1.6,5.4l-0.1-0.1c1-1.4,1.1-3.5,1.1-5.3V42.4z
				 M71.7,42.8l1,0.1c0,0.1-0.1,0.2-0.4,0.2v6.2c0,0-0.1,0.2-0.6,0.2V42.8z M74.8,42.4l1,0.1c0,0.1-0.1,0.2-0.4,0.2v7.4
				c0,0-0.1,0.2-0.6,0.2V42.4z"/>
			<path class="st0" d="M79.3,43.7l0.9,0.1c0,0.1-0.1,0.2-0.4,0.2v4.8c0,0-0.1,0.2-0.5,0.2v-0.7h-1.6v1c0,0-0.1,0.2-0.5,0.2v-5.7
				l0.9,0.1c0,0.1-0.1,0.2-0.4,0.2v4h0.5v-5.9l0.9,0.1c0,0.1-0.1,0.2-0.4,0.2V48h0.6V43.7z M84.5,45.2l0.8,0.6
				c-0.1,0.1-0.2,0.2-0.4,0.2h-0.5v3.6c0,0.5-0.1,0.8-1,0.8c0-0.5-0.4-0.5-1.1-0.6v-0.1h1.3c0.2,0,0.2,0,0.2-0.1v-3.6h-3.9l-0.1-0.2
				h4.3L84.5,45.2z M80.2,43.3l-0.1-0.2H82c0.1-0.3,0.1-0.7,0.1-1.1L83,42c0,0.1-0.1,0.2-0.3,0.2c0,0.3-0.1,0.6-0.1,0.9h1.3l0.4-0.5
				l0.8,0.6c-0.1,0.1-0.2,0.2-0.4,0.2h-2.2c0,0.1-0.1,0.3-0.1,0.4c1.5,0.3,2,0.9,2,1.2c0,0.2-0.1,0.3-0.2,0.3c-0.1,0-0.1,0-0.2-0.1
				c-0.3-0.4-1-1-1.6-1.3c-0.3,0.6-1,1.1-2.2,1.5L80,45.2c1.2-0.5,1.7-1.1,1.9-1.9H80.2z M82.4,48.6h-1.3v0.5c0,0-0.1,0.2-0.5,0.2
				v-2.8l0.5,0.3h1.2l0.2-0.3l0.7,0.5c-0.1,0.1-0.2,0.1-0.4,0.2v1.7c0,0-0.2,0.2-0.5,0.2V48.6z M82.4,47h-1.3v1.4h1.3V47z"/>
			<path class="st0" d="M94.4,44.7c-0.1,0.1-0.2,0.2-0.4,0.2h-3.5c0.3,1.7,1.3,3.6,4,4.9l0,0.1c-0.3,0-0.5,0.1-0.6,0.5
				c-2.6-1.4-3.3-3.6-3.6-5.5h0c-0.3,2.1-1.1,4.1-4.1,5.5l-0.1-0.2c2.6-1.5,3.4-3.3,3.6-5.3H86l-0.1-0.2h3.6
				c0.1-0.8,0.1-1.4,0.1-2.7l1,0.1c0,0.1-0.1,0.2-0.4,0.2c0,0.8,0,1.6-0.1,2.4H93l0.5-0.6L94.4,44.7z"/>
			<path class="st0" d="M103.4,46.2c-0.1,0.1-0.2,0.2-0.4,0.2h-6v0.8h5.2l0.3-0.4l0.7,0.6c-0.1,0.1-0.2,0.1-0.4,0.1
				c-0.1,1.4-0.4,2.3-0.7,2.6c-0.2,0.2-0.5,0.2-0.9,0.2c0-0.3-0.1-0.4-0.8-0.5c-0.2,0.1-0.3,0.1-0.5,0.1v-0.5h-3.9v0.4
				c0,0-0.1,0.2-0.6,0.2v-2.1l0.9,0.1c0,0.1-0.1,0.2-0.3,0.2v1.1h1.6v-1.6l0.9,0.1c0,0.1-0.1,0.2-0.3,0.2v1.3h1.7v-1.3l0.9,0.1
				c0,0.1-0.1,0.2-0.3,0.2v1.5c0.2,0,1,0,1,0c0.1,0,0.2,0,0.2-0.1c0.2-0.2,0.4-1,0.5-2.2H97v0.1c0,0-0.1,0.2-0.6,0.2v-5.1l0.7,0.3
				h1.4c0.1-0.3,0.2-0.8,0.3-1.1l0.9,0.2c0,0.1-0.1,0.2-0.3,0.2c-0.1,0.2-0.4,0.5-0.6,0.7h2.4l0.3-0.4l0.8,0.6
				c-0.1,0.1-0.2,0.1-0.4,0.2v2.1c0,0-0.2,0.2-0.6,0.2v-0.3H97v0.8h5.1l0.4-0.6L103.4,46.2z M101.3,43.2H97v0.8h4.3V43.2z M97,45.1
				h4.3v-0.9H97V45.1z"/>
		</g>
	</g>
</g>
</svg>
